<?xml version="1.0" encoding="utf-8"?>
<!-- Generator: Adobe Illustrator 27.5.0, SVG Export Plug-In . SVG Version: 6.00 Build 0)  -->
<svg version="1.1" xmlns="http://www.w3.org/2000/svg" xmlns:xlink="http://www.w3.org/1999/xlink" x="0px" y="0px"
	 viewBox="0 0 500 500" style="enable-background:new 0 0 500 500;" xml:space="preserve">
<g id="BACKGROUND">
	<rect style="fill:#FFFFFF;stroke:#FFFFFF;stroke-miterlimit:10;" width="500" height="500"/>
</g>
<g id="OBJECTS">
	<g>
		<path style="fill:#E5E5E5;" d="M112.066,352.639c-16.963,2.181-34.145-2.921-46.832-14.388
			c-10.63-9.608-17.174-22.577-0.831-36.023c39.113-32.18,36.014-58.18,17.972-76.581c-18.043-18.401-63.905-55.619-35.673-88.631
			c28.233-33.012,108.215,10.889,119.617-27.349c11.402-38.238,37.638-63.933,71.044-72.169c26.357-6.498,63.73-4.186,71.876,33.106
			c8.068,36.932-38.04,34.871,5.627,94.458c25.68,35.043-16.975,110.115-55.556,94.703c-38.581-15.411-85.764,8.259-87.419,51.769
			C170.799,340.227,135.786,349.59,112.066,352.639z"/>
		<path style="fill:#E5E5E5;" d="M363.323,73.183c2.324-3.908,3.005-8.616,1.715-12.977c-1.307-4.422-4.626-8.881-12.671-9.024
			c-16.09-0.288-14.546,33.441-5.043,34.328C355.129,86.239,359.523,79.574,363.323,73.183z"/>
		<path style="fill:#E5E5E5;" d="M146.43,100.559c3.967-2.222,6.91-5.959,7.974-10.38c1.079-4.483,0.434-10.004-6.46-14.151
			c-13.79-8.295-28.6,19.749-23.77,27.981C127.675,109.975,139.943,104.194,146.43,100.559z"/>
		<path style="fill:#E5E5E5;" d="M58.403,238.867c0.434,2.799,1.975,5.329,4.324,6.911c2.382,1.605,5.745,2.429,9.665-0.694
			c7.84-6.245-3.863-20.066-9.718-19.037C58.43,226.794,57.692,234.29,58.403,238.867z"/>
	</g>
	<g>
		<g>
			<ellipse style="fill:#E5E5E5;" cx="61.933" cy="372.287" rx="32.629" ry="16.829"/>
			<g>
				<g>
					<g>
						<path style="fill:#8167F8;" d="M91.054,369.032c0.001,0.043,0.001,0.086,0.001,0.129c0,1.587-0.533,3.113-1.515,4.536
							c-0.24,0.349-0.507,0.69-0.799,1.025c-0.818,0.937-1.835,1.821-3.026,2.641c-0.258,0.178-0.525,0.352-0.799,0.523
							c-0.924,0.578-1.935,1.118-3.026,1.617c-0.261,0.12-0.527,0.238-0.799,0.353c-0.956,0.407-1.967,0.782-3.027,1.124
							c-0.263,0.086-0.529,0.169-0.799,0.249c-0.972,0.292-1.982,0.557-3.026,0.791c-0.264,0.061-0.53,0.117-0.799,0.174
							c-0.983,0.203-1.992,0.381-3.026,0.531c-0.265,0.038-0.531,0.075-0.799,0.109c-0.989,0.129-1.999,0.232-3.026,0.308
							c-0.265,0.02-0.531,0.038-0.799,0.054c-0.994,0.059-2.003,0.095-3.026,0.104c-0.177,0.001-0.356,0.003-0.535,0.003
							c-0.088,0-0.177,0-0.264-0.001c-1.023-0.004-2.032-0.034-3.027-0.089c-0.268-0.014-0.534-0.032-0.799-0.05
							c-0.757-0.053-1.504-0.121-2.242-0.202c-0.263-0.029-0.525-0.059-0.785-0.092c-0.268-0.033-0.534-0.069-0.799-0.107
							c-1.034-0.143-2.044-0.316-3.026-0.513c-0.269-0.054-0.535-0.109-0.799-0.169c-0.626-0.137-1.24-0.284-1.841-0.442
							c-0.401-0.105-0.795-0.215-1.185-0.329c-0.269-0.079-0.535-0.16-0.799-0.243c-1.059-0.333-2.07-0.7-3.027-1.097
							c-0.189-0.078-0.376-0.158-0.562-0.238c-0.08-0.034-0.158-0.07-0.237-0.105c-0.432-0.192-0.854-0.392-1.262-0.598
							c-0.618-0.312-1.206-0.637-1.764-0.974c-0.274-0.167-0.54-0.336-0.799-0.507c-1.021-0.679-1.921-1.405-2.684-2.17
							c-0.117-0.117-0.232-0.236-0.342-0.356c-0.139-0.148-0.272-0.299-0.399-0.45c-0.14-0.164-0.272-0.332-0.399-0.5
							c-1.154-1.527-1.785-3.182-1.785-4.907c0-0.121,0.004-0.242,0.011-0.364l0.003-9.773l1.771-0.004l0.799-0.002l3.026-0.007
							l0.799-0.003l2.362-0.005l0.664-0.001L43.637,359l3.027-0.007l0.799-0.001l3.026-0.008l0.799-0.001l3.026-0.008l0.799-0.001
							l3.026-0.007l0.799-0.003l3.027-0.007l0.799-0.003l3.026-0.007l0.799-0.001l3.026-0.008l0.799-0.001l3.026-0.008l0.799-0.001
							l3.026-0.007l0.799-0.003l3.027-0.007l0.799-0.003h0.197l2.829-0.007l0.799-0.001l3.026-0.008l0.799-0.001l1.505-0.004
							L91.054,369.032L91.054,369.032z"/>
						<g>
							<g>
								<path style="fill:#7732EF;" d="M35.987,359.018v16.001c-0.139-0.148-0.272-0.299-0.399-0.45
									c-0.14-0.164-0.272-0.332-0.399-0.5v-15.048L35.987,359.018z"/>
								<path style="fill:#7732EF;" d="M39.812,359.009v19.042c-0.274-0.167-0.54-0.336-0.799-0.507v-18.533L39.812,359.009z"/>
								<path style="fill:#7732EF;" d="M43.637,359v20.967c-0.189-0.078-0.376-0.158-0.562-0.238
									c-0.08-0.034-0.158-0.07-0.237-0.105v-20.621L43.637,359z"/>
								<path style="fill:#7732EF;" d="M47.463,358.992v22.316c-0.269-0.079-0.535-0.16-0.799-0.243v-22.071L47.463,358.992z"/>
								<path style="fill:#7732EF;" d="M51.288,358.982v23.265c-0.269-0.054-0.535-0.109-0.799-0.169v-23.095L51.288,358.982z"/>
								<path style="fill:#7732EF;" d="M55.113,358.973v23.895c-0.268-0.033-0.534-0.069-0.799-0.107v-23.787L55.113,358.973z"/>
								<path style="fill:#7732EF;" d="M58.938,358.964v24.247c-0.268-0.014-0.534-0.032-0.799-0.05v-24.195L58.938,358.964z"/>
								<path style="fill:#7732EF;" d="M62.764,358.955V383.3c-0.177,0.001-0.356,0.003-0.535,0.003c-0.088,0-0.177,0-0.264-0.001
									v-24.343L62.764,358.955z"/>
								<path style="fill:#7732EF;" d="M66.589,358.947v24.195c-0.265,0.02-0.531,0.038-0.799,0.054v-24.247L66.589,358.947z"/>
								<path style="fill:#7732EF;" d="M70.414,358.938v23.787c-0.265,0.038-0.531,0.075-0.799,0.109v-23.895L70.414,358.938z"/>
								<path style="fill:#7732EF;" d="M74.239,358.929v23.091c-0.264,0.061-0.53,0.117-0.799,0.174V358.93L74.239,358.929z"/>
								<path style="fill:#7732EF;" d="M78.064,358.919v22.06c-0.263,0.086-0.529,0.169-0.799,0.249v-22.306L78.064,358.919z"/>
								<path style="fill:#7732EF;" d="M81.89,358.91v20.592c-0.261,0.12-0.527,0.238-0.799,0.353v-20.943L81.89,358.91z"/>
								<path style="fill:#7732EF;" d="M85.715,358.902v18.461c-0.258,0.178-0.525,0.352-0.799,0.523v-18.982L85.715,358.902z"/>
								<path style="fill:#7732EF;" d="M89.54,358.893v14.804c-0.24,0.349-0.507,0.69-0.799,1.025v-15.827L89.54,358.893z"/>
							</g>
						</g>
					</g>
					<g>
						<g>
							<path style="fill:#9895FF;" d="M91.048,359.033c0,8.358-12.9,15.136-28.818,15.136c-2.175,0-4.293-0.127-6.33-0.367
								c-2.562-0.301-4.994-0.782-7.248-1.416c-2.012-0.565-3.88-1.253-5.571-2.043c-0.517-0.241-1.017-0.492-1.499-0.753
								c-2.119-1.143-3.896-2.46-5.246-3.908c-0.264-0.283-0.512-0.57-0.741-0.862c-1.407-1.783-2.184-3.738-2.184-5.788
								c0-0.187,0.007-0.375,0.023-0.562c0.559-8.098,13.237-14.573,28.794-14.573c3.829,0,7.482,0.392,10.823,1.104
								c0.646,0.138,1.28,0.287,1.901,0.448c2.715,0.703,5.187,1.623,7.335,2.718c0.474,0.241,0.931,0.49,1.372,0.748
								c1.569,0.917,2.928,1.934,4.038,3.032c1.143,1.132,2.022,2.349,2.591,3.63c0.415,0.935,0.666,1.902,0.734,2.895
								C91.042,358.658,91.048,358.846,91.048,359.033z"/>
							<path style="opacity:0.3;fill:#FFFFFF;" d="M90.292,355.576l-34.391,18.226c-2.562-0.301-4.994-0.782-7.248-1.416
								l39.048-20.44C88.844,353.078,89.722,354.296,90.292,355.576z"/>
							<path style="opacity:0.3;fill:#FFFFFF;" d="M74.955,345.449l-38.617,20.234c-0.264-0.283-0.512-0.57-0.741-0.862
								l37.457-19.82C73.7,345.139,74.334,345.288,74.955,345.449z"/>
							<path style="opacity:0.3;fill:#FFFFFF;" d="M83.663,348.915l-40.58,21.429c-0.517-0.241-1.017-0.492-1.499-0.753
								l40.707-21.424C82.764,348.408,83.222,348.657,83.663,348.915z"/>
							<path style="fill:#7732EF;" d="M85.264,359.034c0,0.186-0.01,0.371-0.022,0.555c-0.556,6.414-10.663,11.542-23.01,11.542
								s-22.454-5.128-23.011-11.542c-0.013-0.184-0.022-0.37-0.022-0.555c0-6.671,10.332-12.097,23.033-12.097
								C74.932,346.936,85.264,352.363,85.264,359.034z"/>
							<path style="fill:#8167F8;" d="M85.242,359.589c-0.556,6.414-10.663,11.542-23.01,11.542c-0.276,0-0.55-0.004-0.823-0.009
								c-2.754-0.051-5.386-0.356-7.816-0.874c-2.43-0.518-4.654-1.247-6.588-2.146c-0.492-0.228-0.964-0.466-1.421-0.716
								c-2.063-1.136-3.715-2.479-4.817-3.968c-0.267-0.356-0.501-0.722-0.701-1.094c-0.476-0.876-0.762-1.793-0.845-2.736
								c0.556-6.414,10.663-11.544,23.011-11.544c1.562,0,3.088,0.083,4.567,0.24c0.752,0.079,1.494,0.179,2.221,0.297
								c2.966,0.481,5.679,1.269,8.002,2.294c0.502,0.221,0.987,0.454,1.453,0.699c1.809,0.946,3.323,2.048,4.457,3.265
								c1.106,1.187,1.851,2.48,2.166,3.842C85.168,358.98,85.216,359.283,85.242,359.589z"/>
							<path style="opacity:0.2;fill:#FFFFFF;" d="M85.097,358.681l-23.689,12.442c-2.754-0.051-5.386-0.356-7.816-0.874
								l29.338-15.409C84.036,356.026,84.782,357.319,85.097,358.681z"/>
							<path style="opacity:0.2;fill:#FFFFFF;" d="M69.019,348.582l-28.252,14.837c-0.267-0.356-0.501-0.722-0.701-1.094
								l26.732-14.04C67.55,348.364,68.292,348.464,69.019,348.582z"/>
							<path style="opacity:0.2;fill:#FFFFFF;" d="M78.473,351.575l-31.469,16.528c-0.492-0.228-0.964-0.466-1.421-0.716
								l31.437-16.511C77.522,351.097,78.007,351.33,78.473,351.575z"/>
							<g>
								<g>
									<g>
										<path style="fill:#7732EF;" d="M65.434,365.897v2.01h-4.861v-1.919c-3.447-0.109-6.792-0.598-8.86-1.268l2.62-3.114
											c2.275,0.706,5.309,1.159,7.964,1.159c2.31,0,3.137-0.253,3.137-0.688c0-1.593-13.342-0.308-13.342-5.034
											c0-2.046,2.827-3.766,8.481-4.183v-1.974h4.861v1.938c2.551,0.126,5.033,0.471,6.998,1.05l-2.448,3.096
											c-2.379-0.634-4.62-0.941-6.723-0.941c-2.379,0-3.137,0.362-3.137,0.797c0,1.521,13.342,0.254,13.342,4.925
											C73.467,363.706,70.778,365.408,65.434,365.897z"/>
									</g>
								</g>
								<g>
									<path style="fill:#9895FF;" d="M65.293,365.228v2.01h-4.861v-1.919c-3.448-0.109-6.792-0.598-8.86-1.267l2.62-3.115
										c2.275,0.706,5.309,1.159,7.964,1.159c2.31,0,3.137-0.254,3.137-0.688c0-1.593-13.342-0.308-13.342-5.034
										c0-2.046,2.827-3.766,8.481-4.183v-1.973h4.861v1.937c2.551,0.127,5.034,0.471,6.998,1.05l-2.448,3.096
										c-2.379-0.634-4.62-0.942-6.723-0.942c-2.379,0-3.137,0.362-3.137,0.797c0,1.521,13.342,0.253,13.342,4.925
										C73.325,363.037,70.636,364.739,65.293,365.228z"/>
								</g>
							</g>
						</g>
					</g>
				</g>
				<g>
					<g>
						<path style="fill:#8167F8;" d="M90.397,353.477c0.001,0.044,0.001,0.086,0.001,0.129c0,1.587-0.533,3.113-1.516,4.536
							c-0.24,0.349-0.507,0.69-0.799,1.025c-0.818,0.937-1.835,1.821-3.026,2.641c-0.258,0.178-0.525,0.352-0.799,0.523
							c-0.923,0.578-1.935,1.118-3.026,1.617c-0.261,0.12-0.527,0.238-0.799,0.353c-0.956,0.407-1.967,0.782-3.027,1.124
							c-0.263,0.086-0.529,0.169-0.799,0.249c-0.972,0.292-1.982,0.557-3.026,0.791c-0.264,0.061-0.53,0.117-0.799,0.174
							c-0.982,0.203-1.992,0.381-3.026,0.531c-0.265,0.038-0.531,0.075-0.799,0.109c-0.989,0.129-1.999,0.232-3.026,0.308
							c-0.265,0.02-0.531,0.038-0.799,0.054c-0.994,0.059-2.003,0.095-3.026,0.104c-0.177,0.001-0.356,0.003-0.535,0.003
							c-0.088,0-0.176,0-0.264-0.001c-1.023-0.004-2.032-0.034-3.027-0.089c-0.268-0.015-0.534-0.032-0.799-0.05
							c-0.757-0.053-1.504-0.121-2.242-0.202c-0.263-0.029-0.525-0.059-0.785-0.092c-0.268-0.033-0.534-0.069-0.799-0.107
							c-1.034-0.143-2.044-0.316-3.026-0.513c-0.269-0.054-0.535-0.109-0.799-0.169c-0.626-0.137-1.239-0.284-1.841-0.442
							c-0.4-0.105-0.795-0.215-1.185-0.329c-0.269-0.079-0.535-0.16-0.799-0.243c-1.059-0.333-2.07-0.701-3.027-1.097
							c-0.189-0.078-0.376-0.158-0.562-0.238c-0.08-0.034-0.158-0.07-0.237-0.105c-0.432-0.192-0.854-0.392-1.262-0.598
							c-0.618-0.312-1.206-0.637-1.764-0.974c-0.274-0.167-0.54-0.336-0.799-0.507c-1.021-0.679-1.921-1.405-2.684-2.17
							c-0.117-0.117-0.232-0.236-0.342-0.356c-0.139-0.148-0.272-0.299-0.399-0.45c-0.14-0.164-0.272-0.332-0.399-0.5
							c-1.154-1.527-1.785-3.182-1.785-4.907c0-0.121,0.004-0.242,0.011-0.364l0.003-9.773l1.771-0.004l0.799-0.002l3.026-0.007
							l0.799-0.003l2.362-0.005l0.664-0.001l0.799-0.003l3.027-0.007l0.799-0.001l3.026-0.008l0.799-0.001l3.026-0.008l0.799-0.001
							l3.026-0.007l0.799-0.003l3.027-0.007l0.799-0.003l3.026-0.007l0.799-0.001l3.026-0.008l0.799-0.001l3.026-0.008l0.799-0.001
							l3.026-0.007l0.799-0.003l3.027-0.007l0.799-0.003h0.197l2.829-0.007l0.799-0.001l3.026-0.008l0.799-0.001l1.505-0.004
							l0.011,10.143H90.397z"/>
						<g>
							<g>
								<path style="fill:#7732EF;" d="M35.329,343.463v16.001c-0.139-0.148-0.272-0.299-0.399-0.45
									c-0.14-0.164-0.272-0.332-0.399-0.5v-15.048L35.329,343.463z"/>
								<path style="fill:#7732EF;" d="M39.154,343.454v19.042c-0.274-0.167-0.54-0.336-0.799-0.507v-18.533L39.154,343.454z"/>
								<path style="fill:#7732EF;" d="M42.979,343.445v20.967c-0.189-0.078-0.376-0.158-0.562-0.238
									c-0.08-0.034-0.158-0.07-0.237-0.105v-20.621L42.979,343.445z"/>
								<path style="fill:#7732EF;" d="M46.805,343.437v22.316c-0.269-0.079-0.535-0.16-0.799-0.243v-22.071L46.805,343.437z"/>
								<path style="fill:#7732EF;" d="M50.63,343.427v23.265c-0.269-0.054-0.535-0.109-0.799-0.169v-23.095L50.63,343.427z"/>
								<path style="fill:#7732EF;" d="M54.455,343.418v23.895c-0.268-0.033-0.534-0.069-0.799-0.107V343.42L54.455,343.418z"/>
								<path style="fill:#7732EF;" d="M58.28,343.409v24.248c-0.268-0.015-0.534-0.032-0.799-0.05v-24.195L58.28,343.409z"/>
								<path style="fill:#7732EF;" d="M62.106,343.4v24.345c-0.177,0.001-0.356,0.003-0.535,0.003c-0.088,0-0.176,0-0.264-0.001
									v-24.344L62.106,343.4z"/>
								<path style="fill:#7732EF;" d="M65.931,343.392v24.195c-0.265,0.02-0.531,0.038-0.799,0.054v-24.247L65.931,343.392z"/>
								<path style="fill:#7732EF;" d="M69.756,343.383v23.787c-0.265,0.038-0.531,0.075-0.799,0.109v-23.895L69.756,343.383z"/>
								<path style="fill:#7732EF;" d="M73.581,343.374v23.091c-0.264,0.061-0.53,0.117-0.799,0.174v-23.264L73.581,343.374z"/>
								<path style="fill:#7732EF;" d="M77.406,343.365v22.06c-0.263,0.086-0.529,0.169-0.799,0.249v-22.306L77.406,343.365z"/>
								<path style="fill:#7732EF;" d="M81.232,343.355v20.592c-0.261,0.12-0.527,0.238-0.799,0.353v-20.943L81.232,343.355z"/>
								<path style="fill:#7732EF;" d="M85.057,343.347v18.461c-0.258,0.178-0.525,0.352-0.799,0.523v-18.982L85.057,343.347z"/>
								<path style="fill:#7732EF;" d="M88.882,343.338v14.804c-0.24,0.349-0.507,0.69-0.799,1.025v-15.827L88.882,343.338z"/>
							</g>
						</g>
					</g>
					<g>
						<g>
							<path style="fill:#9895FF;" d="M90.391,343.478c0,8.358-12.9,15.136-28.818,15.136c-2.175,0-4.293-0.127-6.33-0.367
								c-2.561-0.301-4.994-0.782-7.248-1.416c-2.012-0.565-3.88-1.253-5.57-2.043c-0.517-0.241-1.017-0.492-1.499-0.753
								c-2.119-1.143-3.896-2.46-5.246-3.908c-0.264-0.283-0.512-0.57-0.741-0.862c-1.407-1.783-2.184-3.738-2.184-5.788
								c0-0.187,0.007-0.375,0.023-0.562c0.559-8.098,13.237-14.573,28.794-14.573c3.828,0,7.482,0.392,10.823,1.104
								c0.646,0.138,1.28,0.287,1.901,0.448c2.715,0.703,5.187,1.623,7.335,2.718c0.474,0.241,0.931,0.49,1.372,0.748
								c1.57,0.917,2.929,1.934,4.038,3.032c1.143,1.132,2.022,2.349,2.591,3.63c0.416,0.935,0.666,1.902,0.734,2.895
								C90.385,343.103,90.391,343.291,90.391,343.478z"/>
							<path style="opacity:0.3;fill:#FFFFFF;" d="M89.634,340.021l-34.391,18.226c-2.561-0.301-4.994-0.782-7.248-1.416
								l39.048-20.44C88.187,337.523,89.065,338.741,89.634,340.021z"/>
							<path style="opacity:0.3;fill:#FFFFFF;" d="M74.298,329.895l-38.617,20.234c-0.264-0.283-0.512-0.57-0.741-0.862
								l37.458-19.82C73.042,329.584,73.676,329.733,74.298,329.895z"/>
							<path style="opacity:0.3;fill:#FFFFFF;" d="M83.005,333.36l-40.58,21.429c-0.517-0.241-1.017-0.492-1.499-0.753
								l40.707-21.424C82.107,332.853,82.564,333.102,83.005,333.36z"/>
							<path style="fill:#7732EF;" d="M84.607,343.479c0,0.186-0.01,0.371-0.022,0.555c-0.556,6.414-10.663,11.542-23.011,11.542
								c-12.347,0-22.454-5.128-23.011-11.542c-0.013-0.184-0.022-0.37-0.022-0.555c0-6.671,10.332-12.097,23.033-12.097
								S84.607,336.808,84.607,343.479z"/>
							<path style="fill:#8167F8;" d="M84.584,344.034c-0.556,6.414-10.663,11.542-23.011,11.542c-0.276,0-0.55-0.004-0.823-0.009
								c-2.754-0.051-5.386-0.356-7.816-0.874c-2.43-0.518-4.654-1.247-6.588-2.146c-0.492-0.228-0.964-0.466-1.421-0.716
								c-2.063-1.136-3.715-2.479-4.817-3.968c-0.267-0.356-0.501-0.722-0.701-1.094c-0.476-0.876-0.762-1.793-0.845-2.736
								c0.556-6.414,10.663-11.544,23.011-11.544c1.562,0,3.088,0.083,4.567,0.24c0.752,0.079,1.494,0.179,2.221,0.297
								c2.966,0.481,5.679,1.269,8.002,2.294c0.501,0.221,0.987,0.454,1.453,0.699c1.809,0.945,3.323,2.048,4.457,3.264
								c1.106,1.187,1.851,2.48,2.166,3.842C84.51,343.425,84.558,343.729,84.584,344.034z"/>
							<path style="opacity:0.2;fill:#FFFFFF;" d="M84.44,343.126l-23.689,12.442c-2.754-0.051-5.386-0.356-7.816-0.874
								l29.338-15.409C83.379,340.471,84.125,341.764,84.44,343.126z"/>
							<path style="opacity:0.2;fill:#FFFFFF;" d="M68.361,333.027l-28.252,14.837c-0.267-0.356-0.501-0.722-0.701-1.094
								l26.732-14.04C66.893,332.809,67.635,332.909,68.361,333.027z"/>
							<path style="opacity:0.2;fill:#FFFFFF;" d="M77.816,336.02l-31.469,16.528c-0.492-0.228-0.964-0.466-1.421-0.716
								l31.437-16.511C76.865,335.542,77.35,335.775,77.816,336.02z"/>
							<g>
								<g>
									<g>
										<path style="fill:#7732EF;" d="M64.777,350.342v2.01h-4.861v-1.919c-3.448-0.109-6.792-0.598-8.86-1.268l2.62-3.114
											c2.275,0.706,5.309,1.159,7.964,1.159c2.31,0,3.137-0.253,3.137-0.688c0-1.593-13.342-0.308-13.342-5.034
											c0-2.046,2.827-3.766,8.481-4.183v-1.974h4.861v1.938c2.551,0.127,5.033,0.471,6.998,1.05l-2.448,3.096
											c-2.379-0.634-4.62-0.941-6.723-0.941c-2.379,0-3.137,0.362-3.137,0.797c0,1.521,13.342,0.254,13.342,4.925
											C72.81,348.151,70.12,349.853,64.777,350.342z"/>
									</g>
								</g>
								<g>
									<path style="fill:#9895FF;" d="M64.635,349.673v2.01h-4.861v-1.919c-3.448-0.109-6.792-0.598-8.86-1.267l2.62-3.115
										c2.275,0.706,5.309,1.159,7.964,1.159c2.31,0,3.137-0.253,3.137-0.688c0-1.593-13.342-0.308-13.342-5.034
										c0-2.046,2.827-3.766,8.481-4.183v-1.973h4.861v1.937c2.551,0.127,5.033,0.471,6.998,1.05l-2.448,3.096
										c-2.379-0.634-4.62-0.942-6.723-0.942c-2.379,0-3.137,0.362-3.137,0.797c0,1.521,13.342,0.253,13.342,4.925
										C72.668,347.483,69.979,349.184,64.635,349.673z"/>
								</g>
							</g>
						</g>
					</g>
				</g>
				<g>
					<g>
						<path style="fill:#8167F8;" d="M93.958,338.313c0.001,0.043,0.001,0.086,0.001,0.129c0,1.587-0.533,3.113-1.516,4.536
							c-0.24,0.349-0.507,0.69-0.799,1.025c-0.818,0.937-1.835,1.821-3.026,2.641c-0.258,0.178-0.525,0.352-0.799,0.523
							c-0.924,0.578-1.935,1.118-3.026,1.617c-0.262,0.12-0.528,0.238-0.799,0.353c-0.956,0.407-1.967,0.782-3.027,1.124
							c-0.263,0.086-0.529,0.169-0.799,0.249c-0.972,0.292-1.982,0.557-3.026,0.791c-0.264,0.061-0.53,0.117-0.799,0.174
							c-0.983,0.203-1.992,0.381-3.026,0.531c-0.265,0.038-0.531,0.075-0.799,0.109c-0.989,0.129-1.999,0.232-3.026,0.308
							c-0.265,0.02-0.531,0.038-0.799,0.054c-0.994,0.059-2.003,0.095-3.026,0.104c-0.177,0.001-0.356,0.003-0.535,0.003
							c-0.088,0-0.176,0-0.264-0.001c-1.023-0.004-2.032-0.034-3.027-0.089c-0.268-0.014-0.534-0.032-0.799-0.05
							c-0.757-0.053-1.504-0.121-2.242-0.202c-0.263-0.029-0.525-0.059-0.785-0.092c-0.268-0.033-0.534-0.069-0.799-0.107
							c-1.034-0.143-2.044-0.316-3.026-0.513c-0.269-0.054-0.535-0.109-0.799-0.169c-0.626-0.137-1.24-0.284-1.841-0.442
							c-0.4-0.105-0.795-0.215-1.185-0.329c-0.269-0.079-0.535-0.16-0.799-0.243c-1.059-0.333-2.07-0.7-3.027-1.097
							c-0.189-0.078-0.376-0.158-0.562-0.238c-0.08-0.034-0.159-0.07-0.237-0.105c-0.432-0.192-0.854-0.392-1.262-0.598
							c-0.618-0.312-1.206-0.637-1.764-0.974c-0.274-0.167-0.54-0.336-0.799-0.507c-1.021-0.679-1.921-1.405-2.684-2.17
							c-0.117-0.117-0.232-0.236-0.342-0.356c-0.139-0.148-0.272-0.299-0.399-0.45c-0.14-0.164-0.272-0.332-0.399-0.5
							c-1.154-1.527-1.785-3.182-1.785-4.907c0-0.121,0.004-0.242,0.011-0.364l0.003-9.773l1.772-0.004l0.799-0.002l3.026-0.007
							l0.799-0.003l2.362-0.005l0.664-0.001l0.799-0.003l3.027-0.007l0.799-0.001l3.026-0.008l0.799-0.001l3.026-0.008l0.799-0.001
							l3.026-0.007l0.799-0.003l3.027-0.007l0.799-0.003l3.026-0.007l0.799-0.002l3.026-0.008l0.799-0.001l3.026-0.008l0.799-0.001
							l3.026-0.007l0.799-0.003l3.027-0.007l0.799-0.003h0.197l2.829-0.007l0.799-0.001l3.026-0.008l0.799-0.001l1.505-0.004
							L93.958,338.313L93.958,338.313z"/>
						<g>
							<g>
								<path style="fill:#7732EF;" d="M38.89,328.299V344.3c-0.139-0.148-0.272-0.299-0.399-0.45
									c-0.14-0.164-0.272-0.332-0.399-0.5v-15.048L38.89,328.299z"/>
								<path style="fill:#7732EF;" d="M42.715,328.29v19.042c-0.274-0.167-0.54-0.336-0.799-0.507v-18.533L42.715,328.29z"/>
								<path style="fill:#7732EF;" d="M46.54,328.281v20.967c-0.189-0.078-0.376-0.158-0.562-0.238
									c-0.08-0.034-0.159-0.07-0.237-0.105v-20.621L46.54,328.281z"/>
								<path style="fill:#7732EF;" d="M50.366,328.273v22.316c-0.269-0.079-0.535-0.16-0.799-0.243v-22.071L50.366,328.273z"/>
								<path style="fill:#7732EF;" d="M54.191,328.263v23.265c-0.269-0.054-0.535-0.109-0.799-0.169v-23.095L54.191,328.263z"/>
								<path style="fill:#7732EF;" d="M58.016,328.254v23.895c-0.268-0.033-0.534-0.069-0.799-0.107v-23.787L58.016,328.254z"/>
								<path style="fill:#7732EF;" d="M61.841,328.245v24.247c-0.268-0.014-0.534-0.032-0.799-0.05v-24.195L61.841,328.245z"/>
								<path style="fill:#7732EF;" d="M65.667,328.236v24.345c-0.177,0.001-0.356,0.003-0.535,0.003c-0.088,0-0.176,0-0.264-0.001
									v-24.343L65.667,328.236z"/>
								<path style="fill:#7732EF;" d="M69.492,328.228v24.195c-0.265,0.02-0.531,0.038-0.799,0.054V328.23L69.492,328.228z"/>
								<path style="fill:#7732EF;" d="M73.317,328.219v23.787c-0.265,0.038-0.531,0.075-0.799,0.109V328.22L73.317,328.219z"/>
								<path style="fill:#7732EF;" d="M77.142,328.21v23.091c-0.264,0.061-0.53,0.117-0.799,0.174v-23.264L77.142,328.21z"/>
								<path style="fill:#7732EF;" d="M80.967,328.201v22.06c-0.263,0.086-0.529,0.169-0.799,0.249v-22.306L80.967,328.201z"/>
								<path style="fill:#7732EF;" d="M84.793,328.191v20.592c-0.262,0.12-0.528,0.238-0.799,0.353v-20.943L84.793,328.191z"/>
								<path style="fill:#7732EF;" d="M88.618,328.183v18.461c-0.258,0.178-0.525,0.352-0.799,0.523v-18.982L88.618,328.183z"/>
								<path style="fill:#7732EF;" d="M92.443,328.174v14.804c-0.24,0.349-0.507,0.69-0.799,1.025v-15.827L92.443,328.174z"/>
							</g>
						</g>
					</g>
					<g>
						<g>
							<path style="fill:#9895FF;" d="M93.952,328.314c0,8.358-12.9,15.136-28.818,15.136c-2.175,0-4.293-0.127-6.33-0.367
								c-2.562-0.301-4.994-0.782-7.248-1.416c-2.012-0.565-3.88-1.253-5.571-2.043c-0.517-0.241-1.017-0.492-1.499-0.753
								c-2.119-1.143-3.896-2.46-5.246-3.908c-0.264-0.283-0.512-0.57-0.741-0.862c-1.407-1.783-2.183-3.738-2.183-5.788
								c0-0.187,0.007-0.375,0.023-0.562c0.559-8.098,13.237-14.573,28.794-14.573c3.828,0,7.482,0.392,10.824,1.104
								c0.646,0.138,1.28,0.287,1.901,0.448c2.715,0.703,5.187,1.623,7.335,2.718c0.474,0.241,0.931,0.49,1.372,0.748
								c1.57,0.917,2.929,1.934,4.038,3.032c1.143,1.132,2.022,2.349,2.591,3.63c0.415,0.935,0.666,1.902,0.734,2.895
								C93.945,327.94,93.952,328.127,93.952,328.314z"/>
							<path style="opacity:0.3;fill:#FFFFFF;" d="M93.195,324.857l-34.391,18.226c-2.562-0.301-4.994-0.782-7.248-1.416
								l39.048-20.44C91.748,322.359,92.626,323.577,93.195,324.857z"/>
							<path style="opacity:0.3;fill:#FFFFFF;" d="M77.858,314.73l-38.617,20.234c-0.264-0.283-0.512-0.57-0.741-0.862l37.458-19.82
								C76.603,314.42,77.237,314.569,77.858,314.73z"/>
							<path style="opacity:0.3;fill:#FFFFFF;" d="M86.566,318.196l-40.58,21.429c-0.517-0.241-1.017-0.492-1.499-0.753
								l40.707-21.424C85.667,317.689,86.125,317.938,86.566,318.196z"/>
							<path style="fill:#7732EF;" d="M88.168,328.315c0,0.186-0.01,0.371-0.022,0.555c-0.556,6.414-10.663,11.542-23.01,11.542
								c-12.347,0-22.455-5.128-23.011-11.542c-0.013-0.184-0.022-0.37-0.022-0.555c0-6.671,10.332-12.097,23.033-12.097
								C77.835,316.217,88.168,321.644,88.168,328.315z"/>
							<path style="fill:#8167F8;" d="M88.145,328.87c-0.556,6.414-10.663,11.542-23.01,11.542c-0.276,0-0.55-0.004-0.823-0.009
								c-2.754-0.051-5.386-0.356-7.816-0.874c-2.43-0.518-4.654-1.247-6.588-2.146c-0.492-0.228-0.964-0.466-1.421-0.716
								c-2.063-1.136-3.715-2.479-4.817-3.968c-0.267-0.356-0.501-0.722-0.701-1.094c-0.476-0.876-0.762-1.793-0.845-2.736
								c0.556-6.414,10.663-11.544,23.011-11.544c1.562,0,3.088,0.083,4.567,0.24c0.752,0.079,1.494,0.179,2.221,0.297
								c2.966,0.481,5.679,1.269,8.002,2.294c0.502,0.221,0.987,0.454,1.453,0.699c1.809,0.945,3.323,2.048,4.457,3.264
								c1.106,1.187,1.851,2.48,2.166,3.842C88.071,328.261,88.119,328.565,88.145,328.87z"/>
							<path style="opacity:0.2;fill:#FFFFFF;" d="M88,327.962l-23.688,12.442c-2.754-0.051-5.386-0.356-7.816-0.874l29.338-15.409
								C86.94,325.307,87.686,326.6,88,327.962z"/>
							<path style="opacity:0.2;fill:#FFFFFF;" d="M71.922,317.863L43.67,332.7c-0.267-0.356-0.501-0.722-0.701-1.094l26.732-14.04
								C70.453,317.645,71.196,317.745,71.922,317.863z"/>
							<path style="opacity:0.2;fill:#FFFFFF;" d="M81.377,320.856l-31.469,16.528c-0.492-0.228-0.964-0.466-1.421-0.716
								l31.437-16.511C80.426,320.378,80.911,320.611,81.377,320.856z"/>
							<g>
								<g>
									<g>
										<path style="fill:#7732EF;" d="M68.338,335.178v2.01h-4.861v-1.919c-3.447-0.109-6.792-0.598-8.86-1.268l2.62-3.114
											c2.275,0.706,5.309,1.159,7.964,1.159c2.31,0,3.137-0.253,3.137-0.688c0-1.593-13.342-0.308-13.342-5.034
											c0-2.046,2.827-3.766,8.481-4.182v-1.974h4.861v1.938c2.551,0.126,5.033,0.471,6.999,1.05l-2.448,3.096
											c-2.379-0.634-4.62-0.941-6.723-0.941c-2.379,0-3.137,0.362-3.137,0.797c0,1.521,13.342,0.254,13.342,4.925
											C76.37,332.987,73.681,334.689,68.338,335.178z"/>
									</g>
								</g>
								<g>
									<g>
										<path style="fill:#9895FF;" d="M68.196,334.509v2.01h-4.861V334.6c-3.448-0.109-6.792-0.598-8.86-1.267l2.62-3.115
											c2.275,0.706,5.309,1.159,7.964,1.159c2.31,0,3.137-0.253,3.137-0.688c0-1.593-13.342-0.308-13.342-5.034
											c0-2.046,2.827-3.766,8.481-4.183v-1.973h4.861v1.937c2.551,0.127,5.034,0.471,6.999,1.05l-2.448,3.096
											c-2.379-0.634-4.62-0.942-6.723-0.942c-2.379,0-3.137,0.362-3.137,0.797c0,1.521,13.342,0.253,13.342,4.925
											C76.229,332.319,73.54,334.02,68.196,334.509z"/>
									</g>
								</g>
							</g>
						</g>
					</g>
				</g>
			</g>
		</g>
		<g>
			<ellipse style="fill:#E5E5E5;" cx="80.793" cy="408.649" rx="32.629" ry="16.829"/>
			<g>
				<g>
					<g>
						<path style="fill:#8167F8;" d="M109.483,407.466c0.001,0.043,0.001,0.086,0.001,0.129c0,1.587-0.533,3.113-1.515,4.536
							c-0.24,0.349-0.507,0.69-0.799,1.025c-0.818,0.937-1.835,1.821-3.026,2.641c-0.258,0.178-0.525,0.352-0.799,0.523
							c-0.923,0.578-1.935,1.118-3.026,1.617c-0.262,0.12-0.528,0.238-0.799,0.353c-0.956,0.407-1.967,0.782-3.027,1.124
							c-0.263,0.086-0.529,0.169-0.799,0.249c-0.972,0.292-1.982,0.557-3.026,0.791c-0.264,0.06-0.53,0.117-0.799,0.174
							c-0.983,0.203-1.992,0.381-3.026,0.531c-0.265,0.038-0.531,0.075-0.799,0.109c-0.989,0.129-1.999,0.232-3.026,0.308
							c-0.265,0.02-0.531,0.038-0.799,0.054c-0.994,0.06-2.003,0.095-3.026,0.104c-0.177,0.001-0.356,0.003-0.535,0.003
							c-0.088,0-0.177,0-0.264-0.001c-1.023-0.004-2.032-0.034-3.027-0.089c-0.268-0.014-0.534-0.032-0.799-0.05
							c-0.757-0.053-1.504-0.121-2.242-0.202c-0.263-0.029-0.525-0.059-0.785-0.092c-0.268-0.033-0.534-0.069-0.799-0.107
							c-1.033-0.143-2.044-0.316-3.026-0.513c-0.269-0.054-0.534-0.109-0.799-0.169c-0.626-0.137-1.24-0.284-1.841-0.443
							c-0.4-0.105-0.795-0.214-1.185-0.329c-0.269-0.079-0.535-0.16-0.799-0.243c-1.059-0.333-2.07-0.7-3.027-1.097
							c-0.189-0.078-0.376-0.158-0.562-0.238c-0.08-0.034-0.158-0.07-0.237-0.105c-0.432-0.192-0.854-0.392-1.262-0.598
							c-0.618-0.312-1.207-0.637-1.764-0.974c-0.274-0.167-0.54-0.336-0.799-0.507c-1.021-0.679-1.921-1.405-2.684-2.17
							c-0.117-0.117-0.232-0.236-0.342-0.356c-0.139-0.148-0.272-0.299-0.399-0.45c-0.14-0.164-0.272-0.332-0.399-0.5
							c-1.154-1.527-1.785-3.182-1.785-4.907c0-0.121,0.004-0.242,0.011-0.364l0.003-9.773l1.771-0.004l0.799-0.002l3.026-0.007
							l0.799-0.003l2.362-0.005l0.664-0.001l0.799-0.003l3.027-0.007l0.799-0.001l3.026-0.008l0.799-0.001l3.026-0.008l0.799-0.001
							l3.026-0.007l0.799-0.003l3.027-0.007l0.799-0.003l3.026-0.007l0.799-0.002l3.026-0.008l0.799-0.001l3.026-0.008l0.799-0.001
							l3.026-0.007l0.799-0.003l3.027-0.007l0.799-0.003h0.197l2.829-0.007l0.799-0.001l3.026-0.008l0.799-0.001l1.505-0.004
							L109.483,407.466L109.483,407.466z"/>
						<g>
							<g>
								<path style="fill:#7732EF;" d="M54.415,397.453v16.001c-0.139-0.148-0.272-0.299-0.399-0.45
									c-0.14-0.164-0.272-0.332-0.399-0.5v-15.048L54.415,397.453z"/>
								<path style="fill:#7732EF;" d="M58.241,397.443v19.042c-0.274-0.167-0.54-0.336-0.799-0.507v-18.533L58.241,397.443z"/>
								<path style="fill:#7732EF;" d="M62.066,397.434v20.967c-0.189-0.078-0.376-0.158-0.562-0.238
									c-0.08-0.034-0.158-0.07-0.237-0.105v-20.621L62.066,397.434z"/>
								<path style="fill:#7732EF;" d="M65.891,397.426v22.316c-0.269-0.079-0.535-0.16-0.799-0.243v-22.071L65.891,397.426z"/>
								<path style="fill:#7732EF;" d="M69.716,397.417v23.265c-0.269-0.054-0.534-0.109-0.799-0.169v-23.095L69.716,397.417z"/>
								<path style="fill:#7732EF;" d="M73.542,397.408v23.895c-0.268-0.033-0.534-0.069-0.799-0.107v-23.787L73.542,397.408z"/>
								<path style="fill:#7732EF;" d="M77.367,397.398v24.247c-0.268-0.014-0.534-0.032-0.799-0.05v-24.195L77.367,397.398z"/>
								<path style="fill:#7732EF;" d="M81.193,397.389v24.345c-0.177,0.001-0.356,0.003-0.535,0.003c-0.088,0-0.177,0-0.264-0.001
									v-24.343L81.193,397.389z"/>
								<path style="fill:#7732EF;" d="M85.017,397.381v24.195c-0.265,0.02-0.531,0.038-0.799,0.054v-24.247L85.017,397.381z"/>
								<path style="fill:#7732EF;" d="M88.843,397.372v23.787c-0.265,0.038-0.531,0.075-0.799,0.109v-23.895L88.843,397.372z"/>
								<path style="fill:#7732EF;" d="M92.668,397.363v23.091c-0.264,0.06-0.53,0.117-0.799,0.174v-23.264L92.668,397.363z"/>
								<path style="fill:#7732EF;" d="M96.493,397.354v22.06c-0.263,0.086-0.529,0.169-0.799,0.249v-22.306L96.493,397.354z"/>
								<path style="fill:#7732EF;" d="M100.319,397.345v20.592c-0.262,0.12-0.528,0.238-0.799,0.353v-20.943L100.319,397.345z"/>
								<path style="fill:#7732EF;" d="M104.144,397.336v18.461c-0.258,0.178-0.525,0.352-0.799,0.523v-18.982L104.144,397.336z"/>
								<path style="fill:#7732EF;" d="M107.969,397.327v14.804c-0.24,0.349-0.507,0.69-0.799,1.025v-15.827L107.969,397.327z"/>
							</g>
						</g>
					</g>
					<g>
						<g>
							<path style="fill:#9895FF;" d="M109.477,397.467c0,8.358-12.9,15.136-28.818,15.136c-2.175,0-4.293-0.126-6.33-0.367
								c-2.562-0.301-4.994-0.782-7.248-1.416c-2.012-0.565-3.88-1.253-5.571-2.043c-0.517-0.241-1.017-0.492-1.499-0.753
								c-2.119-1.143-3.896-2.46-5.246-3.908c-0.264-0.283-0.512-0.57-0.741-0.862c-1.407-1.783-2.184-3.738-2.184-5.788
								c0-0.187,0.007-0.375,0.023-0.562c0.559-8.098,13.237-14.573,28.794-14.573c3.828,0,7.482,0.392,10.823,1.104
								c0.646,0.138,1.28,0.287,1.901,0.448c2.715,0.703,5.187,1.623,7.335,2.718c0.474,0.241,0.931,0.49,1.373,0.748
								c1.569,0.917,2.928,1.934,4.038,3.032c1.143,1.132,2.022,2.349,2.591,3.63c0.415,0.935,0.666,1.902,0.734,2.895
								C109.471,397.093,109.477,397.28,109.477,397.467z"/>
							<path style="opacity:0.3;fill:#FFFFFF;" d="M108.721,394.01L74.33,412.236c-2.562-0.301-4.994-0.782-7.248-1.416
								l39.048-20.44C107.273,391.513,108.151,392.73,108.721,394.01z"/>
							<path style="opacity:0.3;fill:#FFFFFF;" d="M93.384,383.884l-38.617,20.234c-0.264-0.283-0.512-0.57-0.741-0.862
								l37.457-19.82C92.129,383.573,92.763,383.722,93.384,383.884z"/>
							<path style="opacity:0.3;fill:#FFFFFF;" d="M102.092,387.349l-40.58,21.429c-0.517-0.241-1.017-0.492-1.499-0.753
								l40.707-21.424C101.193,386.842,101.651,387.092,102.092,387.349z"/>
							<path style="fill:#7732EF;" d="M103.693,397.468c0,0.186-0.01,0.371-0.023,0.555c-0.556,6.414-10.663,11.542-23.01,11.542
								c-12.347,0-22.454-5.128-23.011-11.542c-0.013-0.184-0.022-0.37-0.022-0.555c0-6.671,10.332-12.097,23.033-12.097
								S103.693,390.797,103.693,397.468z"/>
							<path style="fill:#8167F8;" d="M103.67,398.023c-0.556,6.414-10.663,11.542-23.01,11.542c-0.276,0-0.55-0.004-0.823-0.009
								c-2.754-0.051-5.386-0.356-7.816-0.874c-2.43-0.518-4.654-1.247-6.588-2.146c-0.492-0.228-0.964-0.466-1.421-0.716
								c-2.063-1.136-3.715-2.479-4.817-3.968c-0.267-0.356-0.501-0.722-0.701-1.094c-0.476-0.876-0.762-1.793-0.845-2.736
								c0.556-6.414,10.663-11.544,23.011-11.544c1.562,0,3.088,0.083,4.567,0.24c0.752,0.08,1.494,0.179,2.221,0.297
								c2.966,0.481,5.679,1.269,8.002,2.294c0.502,0.221,0.987,0.454,1.453,0.699c1.809,0.945,3.323,2.048,4.457,3.264
								c1.106,1.187,1.851,2.48,2.166,3.842C103.596,397.414,103.645,397.718,103.67,398.023z"/>
							<path style="opacity:0.2;fill:#FFFFFF;" d="M103.526,397.115l-23.688,12.442c-2.754-0.051-5.386-0.356-7.816-0.874
								l29.338-15.409C102.465,394.46,103.211,395.753,103.526,397.115z"/>
							<path style="opacity:0.2;fill:#FFFFFF;" d="M87.448,387.016l-28.252,14.837c-0.267-0.356-0.501-0.722-0.701-1.094
								l26.732-14.04C85.979,386.799,86.721,386.898,87.448,387.016z"/>
							<path style="opacity:0.2;fill:#FFFFFF;" d="M96.902,390.009l-31.469,16.528c-0.492-0.228-0.964-0.466-1.421-0.716
								L95.45,389.31C95.951,389.531,96.436,389.764,96.902,390.009z"/>
							<g>
								<g>
									<g>
										<path style="fill:#7732EF;" d="M83.863,404.331v2.01h-4.861v-1.919c-3.448-0.109-6.792-0.598-8.86-1.268l2.62-3.114
											c2.275,0.706,5.309,1.159,7.964,1.159c2.31,0,3.137-0.253,3.137-0.688c0-1.593-13.342-0.307-13.342-5.034
											c0-2.046,2.827-3.766,8.481-4.183v-1.974h4.861v1.938c2.551,0.126,5.033,0.471,6.998,1.05l-2.448,3.096
											c-2.379-0.634-4.62-0.941-6.723-0.941c-2.379,0-3.137,0.362-3.137,0.797c0,1.521,13.342,0.254,13.342,4.925
											C91.896,402.14,89.207,403.842,83.863,404.331z"/>
									</g>
								</g>
								<g>
									<path style="fill:#9895FF;" d="M83.722,403.663v2.01h-4.861v-1.919c-3.448-0.109-6.792-0.598-8.86-1.267l2.62-3.115
										c2.275,0.706,5.309,1.159,7.964,1.159c2.31,0,3.137-0.253,3.137-0.688c0-1.593-13.342-0.308-13.342-5.034
										c0-2.046,2.827-3.766,8.481-4.183v-1.973h4.861v1.937c2.551,0.127,5.033,0.471,6.998,1.05l-2.448,3.096
										c-2.379-0.634-4.62-0.942-6.723-0.942c-2.379,0-3.137,0.362-3.137,0.797c0,1.521,13.342,0.253,13.342,4.925
										C91.754,401.472,89.065,403.173,83.722,403.663z"/>
								</g>
							</g>
						</g>
					</g>
				</g>
				<g>
					<g>
						<path style="fill:#8167F8;" d="M116.362,396.452c0.001,0.043,0.001,0.085,0.001,0.129c0,1.587-0.533,3.113-1.516,4.536
							c-0.24,0.349-0.507,0.69-0.799,1.025c-0.818,0.937-1.835,1.821-3.026,2.641c-0.258,0.178-0.525,0.351-0.799,0.523
							c-0.923,0.578-1.935,1.118-3.026,1.617c-0.261,0.12-0.527,0.238-0.799,0.353c-0.956,0.407-1.967,0.782-3.027,1.124
							c-0.263,0.086-0.529,0.169-0.799,0.249c-0.972,0.292-1.982,0.557-3.026,0.791c-0.264,0.061-0.53,0.117-0.799,0.174
							c-0.983,0.203-1.992,0.381-3.026,0.531c-0.265,0.038-0.531,0.075-0.799,0.109c-0.989,0.129-1.999,0.232-3.026,0.308
							c-0.265,0.02-0.531,0.038-0.799,0.054c-0.994,0.059-2.003,0.095-3.026,0.104c-0.177,0.001-0.356,0.003-0.535,0.003
							c-0.088,0-0.176,0-0.264-0.001c-1.023-0.004-2.032-0.034-3.027-0.089c-0.268-0.014-0.534-0.032-0.799-0.05
							c-0.757-0.053-1.504-0.121-2.242-0.202c-0.263-0.029-0.525-0.059-0.785-0.092c-0.268-0.033-0.534-0.069-0.799-0.107
							c-1.034-0.143-2.044-0.316-3.026-0.513c-0.269-0.054-0.535-0.109-0.799-0.169c-0.626-0.137-1.24-0.284-1.841-0.443
							c-0.4-0.105-0.795-0.215-1.185-0.329c-0.269-0.079-0.535-0.16-0.799-0.243c-1.059-0.333-2.07-0.701-3.027-1.097
							c-0.189-0.078-0.376-0.158-0.562-0.238c-0.08-0.034-0.159-0.07-0.237-0.105c-0.432-0.192-0.854-0.392-1.262-0.598
							c-0.618-0.312-1.206-0.637-1.764-0.974c-0.274-0.167-0.54-0.336-0.799-0.507c-1.021-0.679-1.921-1.405-2.684-2.17
							c-0.117-0.117-0.232-0.236-0.342-0.356c-0.139-0.148-0.272-0.299-0.399-0.45c-0.14-0.164-0.272-0.332-0.399-0.5
							c-1.154-1.527-1.785-3.183-1.785-4.907c0-0.121,0.004-0.242,0.011-0.364l0.003-9.773l1.771-0.004l0.799-0.003l3.026-0.007
							l0.799-0.003l2.362-0.005l0.664-0.001l0.799-0.003l3.027-0.007l0.799-0.001l3.026-0.008l0.799-0.001l3.026-0.008l0.799-0.001
							l3.026-0.007l0.799-0.003l3.027-0.007l0.799-0.003l3.026-0.007l0.799-0.002l3.026-0.008l0.799-0.001l3.026-0.008l0.799-0.001
							l3.026-0.007l0.799-0.003l3.027-0.007l0.799-0.003h0.197l2.829-0.007l0.799-0.001l3.026-0.008l0.799-0.001l1.505-0.004
							l0.011,10.143H116.362z"/>
						<g>
							<g>
								<path style="fill:#7732EF;" d="M61.295,386.438v16.001c-0.139-0.148-0.272-0.299-0.399-0.45
									c-0.14-0.164-0.272-0.332-0.399-0.5v-15.048L61.295,386.438z"/>
								<path style="fill:#7732EF;" d="M65.12,386.429v19.043c-0.274-0.167-0.54-0.336-0.799-0.507v-18.533L65.12,386.429z"/>
								<path style="fill:#7732EF;" d="M68.945,386.42v20.967c-0.189-0.078-0.376-0.158-0.562-0.238
									c-0.08-0.034-0.159-0.07-0.237-0.105v-20.621L68.945,386.42z"/>
								<path style="fill:#7732EF;" d="M72.771,386.412v22.316c-0.269-0.079-0.535-0.16-0.799-0.243v-22.071L72.771,386.412z"/>
								<path style="fill:#7732EF;" d="M76.596,386.403v23.265c-0.269-0.054-0.535-0.109-0.799-0.169v-23.095L76.596,386.403z"/>
								<path style="fill:#7732EF;" d="M80.421,386.393v23.895c-0.268-0.033-0.534-0.069-0.799-0.107v-23.787L80.421,386.393z"/>
								<path style="fill:#7732EF;" d="M84.246,386.384v24.248c-0.268-0.014-0.534-0.032-0.799-0.05v-24.195L84.246,386.384z"/>
								<path style="fill:#7732EF;" d="M88.072,386.375v24.345c-0.177,0.001-0.356,0.003-0.535,0.003c-0.088,0-0.176,0-0.264-0.001
									v-24.344L88.072,386.375z"/>
								<path style="fill:#7732EF;" d="M91.897,386.367v24.195c-0.265,0.02-0.531,0.038-0.799,0.054v-24.247L91.897,386.367z"/>
								<path style="fill:#7732EF;" d="M95.722,386.358v23.787c-0.265,0.038-0.531,0.075-0.799,0.109v-23.895L95.722,386.358z"/>
								<path style="fill:#7732EF;" d="M99.547,386.349v23.091c-0.264,0.061-0.53,0.117-0.799,0.174V386.35L99.547,386.349z"/>
								<path style="fill:#7732EF;" d="M103.372,386.34v22.06c-0.263,0.086-0.529,0.169-0.799,0.249v-22.307L103.372,386.34z"/>
								<path style="fill:#7732EF;" d="M107.198,386.331v20.592c-0.261,0.12-0.527,0.238-0.799,0.353v-20.943L107.198,386.331z"/>
								<path style="fill:#7732EF;" d="M111.023,386.322v18.461c-0.258,0.178-0.525,0.351-0.799,0.523v-18.982L111.023,386.322z"/>
								<path style="fill:#7732EF;" d="M114.848,386.313v14.804c-0.24,0.349-0.507,0.69-0.799,1.025v-15.827L114.848,386.313z"/>
							</g>
						</g>
					</g>
					<g>
						<g>
							<path style="fill:#9895FF;" d="M116.356,386.453c0,8.358-12.9,15.136-28.818,15.136c-2.175,0-4.293-0.127-6.33-0.367
								c-2.562-0.301-4.994-0.782-7.248-1.416c-2.012-0.565-3.88-1.253-5.571-2.043c-0.517-0.241-1.017-0.492-1.499-0.753
								c-2.119-1.143-3.896-2.46-5.246-3.908c-0.264-0.283-0.512-0.57-0.741-0.862c-1.407-1.783-2.184-3.738-2.184-5.788
								c0-0.187,0.007-0.375,0.023-0.562c0.559-8.098,13.237-14.573,28.794-14.573c3.828,0,7.482,0.392,10.823,1.104
								c0.646,0.138,1.28,0.287,1.901,0.448c2.715,0.703,5.187,1.623,7.335,2.718c0.474,0.241,0.931,0.49,1.373,0.748
								c1.569,0.917,2.928,1.934,4.038,3.032c1.143,1.132,2.022,2.349,2.591,3.63c0.416,0.935,0.666,1.902,0.734,2.895
								C116.35,386.079,116.356,386.266,116.356,386.453z"/>
							<path style="opacity:0.3;fill:#FFFFFF;" d="M115.6,382.996l-34.391,18.226c-2.562-0.301-4.994-0.782-7.248-1.416
								l39.048-20.44C114.152,380.499,115.031,381.716,115.6,382.996z"/>
							<path style="opacity:0.3;fill:#FFFFFF;" d="M100.263,372.87l-38.617,20.234c-0.264-0.283-0.512-0.57-0.741-0.862
								l37.458-19.82C99.008,372.559,99.642,372.708,100.263,372.87z"/>
							<path style="opacity:0.3;fill:#FFFFFF;" d="M108.971,376.335l-40.58,21.429c-0.517-0.241-1.017-0.492-1.499-0.753
								l40.707-21.424C108.072,375.828,108.53,376.077,108.971,376.335z"/>
							<path style="fill:#7732EF;" d="M110.572,386.454c0,0.186-0.01,0.371-0.022,0.555c-0.556,6.414-10.663,11.542-23.011,11.542
								c-12.347,0-22.454-5.128-23.01-11.542c-0.013-0.184-0.022-0.37-0.022-0.555c0-6.671,10.332-12.097,23.033-12.097
								S110.572,379.783,110.572,386.454z"/>
							<path style="fill:#8167F8;" d="M110.55,387.009c-0.556,6.414-10.663,11.542-23.011,11.542c-0.276,0-0.55-0.004-0.823-0.009
								c-2.754-0.051-5.386-0.356-7.816-0.874c-2.43-0.518-4.654-1.247-6.588-2.146c-0.492-0.228-0.964-0.466-1.42-0.716
								c-2.063-1.136-3.715-2.479-4.817-3.968c-0.267-0.356-0.501-0.722-0.701-1.094c-0.476-0.876-0.762-1.793-0.845-2.736
								c0.556-6.414,10.663-11.544,23.01-11.544c1.562,0,3.089,0.083,4.567,0.24c0.752,0.079,1.494,0.179,2.221,0.297
								c2.966,0.481,5.679,1.269,8.002,2.294c0.501,0.221,0.987,0.454,1.453,0.699c1.809,0.945,3.323,2.048,4.457,3.264
								c1.106,1.187,1.851,2.48,2.166,3.842C110.476,386.4,110.524,386.704,110.55,387.009z"/>
							<path style="opacity:0.2;fill:#FFFFFF;" d="M110.405,386.101l-23.689,12.442c-2.754-0.051-5.386-0.356-7.816-0.874
								l29.338-15.409C109.345,383.446,110.09,384.739,110.405,386.101z"/>
							<path style="opacity:0.2;fill:#FFFFFF;" d="M94.327,376.002l-28.252,14.837c-0.267-0.356-0.501-0.722-0.701-1.094
								l26.732-14.04C92.858,375.784,93.6,375.884,94.327,376.002z"/>
							<path style="opacity:0.2;fill:#FFFFFF;" d="M103.782,378.995l-31.469,16.528c-0.492-0.228-0.964-0.466-1.42-0.716
								l31.437-16.511C102.83,378.517,103.316,378.75,103.782,378.995z"/>
							<g>
								<g>
									<g>
										<path style="fill:#7732EF;" d="M90.742,393.317v2.01h-4.861v-1.919c-3.448-0.109-6.792-0.598-8.86-1.268l2.62-3.114
											c2.275,0.706,5.309,1.159,7.964,1.159c2.31,0,3.137-0.253,3.137-0.688c0-1.593-13.342-0.308-13.342-5.034
											c0-2.046,2.827-3.766,8.481-4.182v-1.974h4.861v1.938c2.551,0.126,5.033,0.471,6.998,1.05l-2.448,3.096
											c-2.379-0.634-4.62-0.941-6.723-0.941c-2.379,0-3.138,0.362-3.138,0.797c0,1.521,13.342,0.254,13.342,4.925
											C98.775,391.126,96.086,392.828,90.742,393.317z"/>
									</g>
								</g>
								<g>
									<path style="fill:#9895FF;" d="M90.601,392.648v2.01H85.74v-1.919c-3.448-0.109-6.792-0.598-8.86-1.267l2.62-3.115
										c2.275,0.706,5.309,1.159,7.964,1.159c2.31,0,3.137-0.254,3.137-0.688c0-1.593-13.342-0.307-13.342-5.034
										c0-2.046,2.827-3.766,8.481-4.183v-1.973h4.861v1.937c2.551,0.127,5.033,0.471,6.998,1.051l-2.448,3.096
										c-2.379-0.634-4.62-0.942-6.723-0.942c-2.379,0-3.137,0.362-3.137,0.797c0,1.521,13.342,0.253,13.342,4.925
										C98.634,390.457,95.944,392.159,90.601,392.648z"/>
								</g>
							</g>
						</g>
					</g>
				</g>
			</g>
		</g>
	</g>
	<g>
		
			<ellipse transform="matrix(0.9092 -0.4163 0.4163 0.9092 -130.3167 128.0986)" style="fill:#E5E5E5;" cx="228.575" cy="362.869" rx="71.135" ry="25.423"/>
		<g>
			<g>
				<g>
					<path style="fill:#3A4059;" d="M275.969,358.03l-54.31,31.357c-2.321,1.34-5.183,1.34-7.504,0l-26.606-15.362
						c-3.909-2.258-4.763-7.16-2.563-10.574c0.613-0.954,1.467-1.79,2.56-2.421l54.208-31.321c2.315-1.337,5.168-1.343,7.489-0.012
						l26.708,15.328c1.102,0.631,1.962,1.473,2.578,2.433C280.729,350.87,279.878,355.772,275.969,358.03z"/>
					<path style="fill:#51557C;" d="M278.529,347.459c-0.613,0.954-1.467,1.79-2.56,2.421l-54.31,31.357
						c-2.321,1.34-5.183,1.34-7.504,0l-26.606-15.362c-1.093-0.631-1.947-1.47-2.563-2.424c0.613-0.954,1.467-1.79,2.56-2.421
						l54.208-31.321c2.315-1.337,5.168-1.343,7.489-0.012l26.708,15.328C277.052,345.657,277.913,346.499,278.529,347.459z"/>
				</g>
				<g>
					<polygon style="fill:#252B3D;" points="242.376,298.005 242.376,346.242 228.705,354.215 228.606,366.473 225.503,368.281 
						225.5,368.278 214.774,362.337 214.774,314.291 					"/>
					<polygon style="fill:#3A4059;" points="253.101,303.952 253.101,352.189 228.606,366.473 225.503,368.281 225.5,368.284 
						225.5,319.878 242.376,310.14 					"/>
				</g>
			</g>
			<g>
				<g>
					<g>
						<path style="fill:#252B3D;" d="M333.076,50.026v187.249c0,3.248-1.733,6.251-4.546,7.876L97.306,378.647
							c-6.061,3.499-13.638-0.875-13.638-7.875V183.852c0-2.071,0.706-4.042,1.947-5.621c0.622-0.794,1.38-1.485,2.255-2.044
							c0.109-0.069,0.22-0.139,0.335-0.205l12.642-7.317L319.432,42.157C325.493,38.649,333.076,43.023,333.076,50.026z"/>
						<path style="fill:#252B3D;" d="M88.377,378.734l16.051,7.96l-3.704-10.02C100.724,376.674,93.435,378.956,88.377,378.734z"/>
					</g>
					<path style="fill:#3A4059;" d="M350.13,50.66v9.572l-17.055,9.708L118.08,192.316l-16.841-7.154l-15.624-6.931
						c0.622-0.794,1.38-1.485,2.255-2.044l12.977-7.522L324.451,39.054c3.532-2.047,7.884-2.077,11.443-0.072l10.435,5.865
						l1.105,0.622C349.031,46.585,350.13,48.432,350.13,50.66z"/>
				</g>
				<path style="fill:#51557C;" d="M350.13,50.66v193.6c0,2.265-1.208,4.36-3.173,5.495L110.24,386.422
					c-4.23,2.443-9.518-0.607-9.518-5.492V187.665c0-2.262,1.208-4.355,3.168-5.49l0.337-0.198l236.378-136.81
					c1.885-1.09,3.98-1.09,5.725-0.32c0.385,0.17,0.758,0.377,1.105,0.623C349.03,46.585,350.13,48.432,350.13,50.66z"/>
				<g>
					<path style="fill:#FFFFFF;" d="M341.123,60.086v182.546c0,0.812-0.438,1.57-1.141,1.977L116.777,373.475
						c-0.359,0.208-0.743,0.314-1.132,0.314c-1.102,0-2.291-0.875-2.291-2.291V189.269c0-0.812,0.438-1.567,1.141-1.974
						L337.697,58.112c0.362-0.211,0.743-0.317,1.135-0.317C339.934,57.795,341.123,58.67,341.123,60.086z"/>
					<g>
						<path style="opacity:0.1;fill:#252B3D;" d="M341.123,60.086v8.663l-227.77,131.764v-11.244c0-0.812,0.438-1.567,1.141-1.974
							L337.697,58.112c0.362-0.211,0.743-0.317,1.135-0.317C339.934,57.795,341.123,58.67,341.123,60.086z"/>
						<g>
							<path style="fill:#9985FF;" d="M321.232,74.778c-0.081,1.52-1.047,2.752-2.159,2.752c-1.112,0-1.948-1.232-1.867-2.752
								c0.081-1.52,1.047-2.752,2.159-2.752C320.477,72.026,321.313,73.258,321.232,74.778z"/>
							<path style="fill:#3A4059;" d="M327.647,71.533c-0.081,1.52-1.047,2.752-2.159,2.752c-1.112,0-1.948-1.232-1.867-2.752
								c0.081-1.52,1.047-2.752,2.159-2.752C326.892,68.781,327.727,70.013,327.647,71.533z"/>
							<path style="fill:#7732EF;" d="M333.344,68.372c-0.081,1.52-1.047,2.752-2.159,2.752c-1.112,0-1.947-1.232-1.867-2.752
								c0.081-1.52,1.047-2.752,2.159-2.752C332.589,65.621,333.425,66.853,333.344,68.372z"/>
						</g>
					</g>
				</g>
				<path style="fill:#51557C;" d="M341.123,221.161v21.54c0,0.812-0.438,1.57-1.141,1.977L116.776,373.545
					c-0.359,0.208-0.743,0.314-1.132,0.314c-1.102,0-2.291-0.875-2.291-2.291v-18.905L341.123,221.161z"/>
				
					<ellipse transform="matrix(0.1126 -0.9936 0.9936 0.1126 -78.6925 499.6601)" style="fill:#6B749B;" cx="240.381" cy="293.885" rx="8.262" ry="6.008"/>
			</g>
		</g>
	</g>
	<g>
		<path style="fill:#E5E5E5;" d="M180.209,434.405c1.29,6.747-9.719,14.522-24.59,17.365c-14.871,2.844-27.973-0.321-29.263-7.068
			c-1.29-6.747,9.719-14.522,24.591-17.365C165.817,424.493,178.918,427.658,180.209,434.405z"/>
		<g>
			<g>
				<g>
					<path style="fill:#7732EF;" d="M157.705,424.404c-0.891,0.294-1.532,1.098-1.672,2.043c-0.122,0.827-0.22,2.008-0.172,3.576
						c0.107,3.497,0.152,4.969,0.152,4.969s1.054,1.798,4.088,2.299l1.163,0.188c0,0,6.596,4.065,9.802,4.382
						c4.184,0.414,8.46-1.51,4.999-5.58c-3.268-3.844-8.074-5.385-9.494-8.464c-0.166-0.359-1.238-1.125-1.511-1.407
						C162.743,424.011,160.959,423.332,157.705,424.404z"/>
					<g>
						<g>
							<path style="fill:#FFFFFF;" d="M164.872,431.871c0.151,0,0.295-0.089,0.359-0.237c0.005-0.011,0.535-1.211,1.52-1.539
								c0.944-0.315,1.958,0.507,1.968,0.515c0.166,0.137,0.412,0.114,0.549-0.052c0.137-0.165,0.115-0.411-0.05-0.548
								c-0.054-0.046-1.353-1.109-2.714-0.656c-1.321,0.44-1.964,1.909-1.99,1.972c-0.085,0.198,0.007,0.427,0.205,0.512
								C164.768,431.861,164.821,431.871,164.872,431.871z"/>
						</g>
						<g>
							<path style="fill:#FFFFFF;" d="M166.237,432.847c0.151,0,0.295-0.089,0.359-0.237c0.005-0.011,0.535-1.211,1.52-1.539
								c0.944-0.315,1.958,0.507,1.968,0.516c0.166,0.137,0.412,0.113,0.549-0.052c0.137-0.165,0.115-0.411-0.05-0.548
								c-0.054-0.046-1.353-1.109-2.714-0.656c-1.321,0.44-1.964,1.909-1.99,1.972c-0.085,0.198,0.007,0.427,0.205,0.512
								C166.134,432.836,166.186,432.847,166.237,432.847z"/>
						</g>
						<g>
							<path style="fill:#FFFFFF;" d="M167.794,433.719c0.151,0,0.295-0.089,0.359-0.237c0.005-0.011,0.535-1.211,1.52-1.539
								c0.944-0.315,1.958,0.507,1.968,0.515c0.166,0.137,0.412,0.113,0.549-0.052c0.137-0.165,0.115-0.411-0.05-0.548
								c-0.054-0.046-1.353-1.109-2.714-0.656c-1.321,0.44-1.964,1.909-1.99,1.972c-0.085,0.198,0.007,0.427,0.205,0.512
								C167.69,433.709,167.743,433.719,167.794,433.719z"/>
						</g>
					</g>
					<path style="fill:#FCB38F;" d="M158.147,417.601l-0.355,8.64c0,0,2.177,2.219,5.564,0.75l0.839-9.331
						C164.195,417.661,160.539,416.358,158.147,417.601z"/>
				</g>
				<path style="fill:#3A4059;" d="M150.999,328.347c0.11,0.283,0.169,0.479,0.169,0.479c2.484,12.556,7.154,27.24,5.162,35.74
					c-3.305,14.101,0.441,57.947,0.441,57.947c3.165,1.177,5.664,1.35,8.813,0.661c0,0,4.008-35.134,6.782-56.577
					c1.026-7.927-0.736-28.072-2.774-41.056L150.999,328.347z"/>
				<g>
					<path style="fill:#51557C;" d="M158.893,368.323c0.584-2.218,1.187-4.512,1.095-9.017c-0.073-3.563-1.262-10.434-2.537-16.87
						c-0.039-0.197-0.212-0.339-0.413-0.339l0,0c-0.265,0-0.464,0.241-0.413,0.502c1.271,6.419,2.457,13.255,2.528,16.724
						c0.09,4.388-0.498,6.625-1.067,8.787c-0.421,1.599-0.856,3.253-0.992,5.712c-0.314,5.66,1.378,45.752,1.45,47.456
						c0.009,0.224,0.194,0.4,0.417,0.4c0.006,0,0.012,0,0.018,0c0.23-0.01,0.409-0.204,0.399-0.435
						c-0.018-0.417-1.763-41.755-1.451-47.374C158.058,371.494,158.464,369.954,158.893,368.323z"/>
				</g>
				<path style="fill:#6B749B;" d="M166.17,419.79c0,0-5.667,0.587-9.957-0.514c-0.331,1.642-0.149,3.367,0.245,4.303
					c0,0,5.119,1.295,9.236,0.316C166.172,422.668,166.534,421.225,166.17,419.79z"/>
			</g>
			<g>
				<path style="fill:#7732EF;" d="M193.548,295.837l-6.255,4.855c0,0-19.243-14.033-22.245-25.033c-3-11,1.785-31.918,1.785-31.918
					s4.325,2.7,5.16,8.167c0.82,5.39,0.875,19.412,2.48,23.292c0.023,0.057,0.045,0.11,0.07,0.163
					c0.077,0.168,0.185,0.36,0.325,0.58C177.766,280.502,193.548,295.837,193.548,295.837z"/>
				<g>
					<g>
						<path style="fill:#5D16BC;" d="M174.868,275.944c-0.868,0.385-1.908,0.972-2.798,1.852c-0.12,0.118-0.295,0.15-0.443,0.092
							c-0.057-0.02-0.107-0.052-0.15-0.095c-0.103-0.105-0.14-0.25-0.113-0.385c0.018-0.075,0.057-0.15,0.118-0.21
							c0.96-0.942,2.063-1.582,2.99-1.997c0.023,0.057,0.045,0.11,0.07,0.163C174.621,275.532,174.728,275.724,174.868,275.944z"/>
					</g>
				</g>
			</g>
			<g>
				<g>
					<g>
						<g>
							<path style="fill:#7732EF;" d="M132.957,429.99c-0.923,0.304-1.587,1.137-1.731,2.115c-0.126,0.856-0.227,2.079-0.178,3.703
								c0.111,3.621,0.156,5.098,0.156,5.098s1.093,1.91,4.234,2.428l0.924,0.13c0,0,7.11,4.274,10.43,4.603
								c4.333,0.429,8.76-1.563,5.177-5.778c-3.384-3.981-8.361-5.576-9.831-8.764c-0.171-0.372-1.281-1.165-1.564-1.457
								C138.173,429.583,136.327,428.88,132.957,429.99z"/>
						</g>
						<g>
							<g>
								<g>
									<path style="fill:#FFFFFF;" d="M140.216,437.641c0.157,0,0.306-0.092,0.371-0.245c0.005-0.012,0.554-1.254,1.574-1.594
										c0.978-0.327,2.027,0.525,2.038,0.534c0.172,0.142,0.426,0.118,0.568-0.054c0.142-0.171,0.119-0.425-0.052-0.568
										c-0.056-0.047-1.402-1.148-2.81-0.679c-1.368,0.456-2.033,1.977-2.061,2.042c-0.088,0.205,0.007,0.443,0.212,0.53
										C140.109,437.63,140.163,437.641,140.216,437.641z"/>
								</g>
							</g>
							<g>
								<g>
									<path style="fill:#FFFFFF;" d="M141.629,438.65c0.157,0,0.306-0.092,0.371-0.245c0.005-0.012,0.554-1.254,1.574-1.594
										c0.978-0.327,2.028,0.525,2.038,0.534c0.172,0.142,0.426,0.117,0.568-0.054c0.142-0.171,0.119-0.425-0.052-0.568
										c-0.056-0.047-1.401-1.148-2.81-0.679c-1.368,0.456-2.033,1.977-2.061,2.042c-0.088,0.205,0.007,0.443,0.212,0.53
										C141.522,438.64,141.576,438.65,141.629,438.65z"/>
								</g>
							</g>
							<g>
								<g>
									<path style="fill:#FFFFFF;" d="M143.241,439.554c0.157,0,0.306-0.092,0.371-0.245c0.005-0.012,0.554-1.254,1.574-1.594
										c0.978-0.327,2.027,0.525,2.038,0.534c0.172,0.142,0.426,0.117,0.568-0.054c0.142-0.171,0.119-0.425-0.052-0.568
										c-0.056-0.047-1.401-1.149-2.81-0.679c-1.368,0.456-2.033,1.977-2.061,2.042c-0.088,0.205,0.007,0.443,0.212,0.53
										C143.134,439.543,143.188,439.554,143.241,439.554z"/>
								</g>
							</g>
						</g>
					</g>
					<g>
						<path style="fill:#FCB38F;" d="M133.415,422.946l-0.367,8.947c0,0,2.255,2.298,5.761,0.777l0.869-9.662
							C139.677,423.008,135.892,421.659,133.415,422.946z"/>
					</g>
				</g>
				<g>
					<path style="fill:#3A4059;" d="M131.34,373.518c2.827-14.743,0.588-38.057,0.373-48.794l23.729,3.649l0.702,14.65
						c-0.01-0.053-1.765,0.121-1.776,0.068c0,0-1.025-0.452-2.228-0.405c-1.689,0.066-2.202,2.864-2.426,3.667
						c-0.831,10.584-0.876,23.544-1.827,31.625c-1.884,15.988-7.862,51.482-7.862,51.482c-2.886,0.631-4.572,0.473-7.472-0.606
						C132.552,428.855,129.558,382.81,131.34,373.518z"/>
				</g>
				<g>
					<path style="fill:#51557C;" d="M133.997,428.37c0.002,0,0.004,0,0.006,0c0.254-0.003,0.457-0.212,0.453-0.465
						c-0.022-1.637-0.531-40.129-0.835-43.028c-0.31-2.959,0.651-13.585,1.594-19.358c0.669-4.09,0.193-23.321,0.173-24.138
						c-0.006-0.25-0.211-0.448-0.459-0.448c-0.004,0-0.008,0-0.012,0c-0.253,0.006-0.454,0.217-0.448,0.471
						c0.005,0.199,0.494,19.962-0.161,23.967c-0.952,5.824-1.917,16.581-1.601,19.601c0.299,2.858,0.825,42.544,0.83,42.944
						C133.541,428.168,133.746,428.37,133.997,428.37z"/>
				</g>
				<g>
					<path style="fill:#6B749B;" d="M140.757,426.562c0,0-5.06,0.538-8.891-0.471c-0.296,1.505-0.133,3.086,0.219,3.944
						c0,0,4.57,1.187,8.247,0.29C140.759,429.2,141.082,427.876,140.757,426.562z"/>
				</g>
			</g>
			<g>
				<path style="fill:#8167F8;" d="M166.832,243.741c-5.853-1.218-12.952-3.226-18.217-1.392
					c-7.419,2.584-11.242,5.663-16.292,9.261c-0.176,2.918-0.762,16.292-0.802,19.381c-0.009,0.745-0.012,1.482-0.008,2.202
					c0.001,0.303,0.003,0.602,0.009,0.898c0.14,9.442-1.034,30.475-1.245,35.555c-0.38,9.137-0.711,13.891-0.492,14.463
					c1.265,3.296,9.547,6.339,21.842,5.626c12.293-0.715,18.31-0.986,19.648-5.506c1.338-4.518,0.641-7.973-0.76-21.405
					C169.333,291.497,166.594,253.575,166.832,243.741z"/>
				<g>
					<path style="fill:#7732EF;" d="M158.192,312.679c-0.158-0.066-12.095-5.147-18.314-12.331c-0.293-0.338-0.848-0.127-0.848,0.32
						l0,0c0,0.117,0.041,0.23,0.117,0.319c1.934,2.237,4.581,4.479,7.933,6.715c5.382,3.591,10.69,5.834,10.743,5.856
						c0.018,0.008,0.037,0.014,0.055,0.019c0.228,0.064,0.474-0.05,0.569-0.274C158.549,313.06,158.435,312.781,158.192,312.679z"/>
				</g>
				<g>
					<path style="fill:#7732EF;" d="M158.238,317.703c0.25,0.071,0.511-0.072,0.586-0.321c0.076-0.252-0.067-0.518-0.319-0.594
						c-0.066-0.02-6.691-2.04-12.622-6.241c-0.215-0.152-0.512-0.102-0.664,0.113c-0.152,0.215-0.101,0.512,0.113,0.664
						c6.063,4.294,12.831,6.356,12.899,6.376C158.233,317.701,158.235,317.702,158.238,317.703z"/>
				</g>
				<g>
					<path style="fill:#7732EF;" d="M158.387,254.134c0.25,0.071,0.511-0.072,0.586-0.321c0.076-0.252-0.067-0.518-0.319-0.594
						c-0.066-0.02-6.691-2.04-12.622-6.241c-0.215-0.153-0.512-0.102-0.664,0.113c-0.152,0.215-0.101,0.512,0.113,0.664
						c6.063,4.294,12.831,6.356,12.899,6.376C158.381,254.132,158.384,254.133,158.387,254.134z"/>
				</g>
			</g>
			<g>
				<g>
					<path style="fill:#252B3D;" d="M144.226,215.831c-0.289-2.827,7.137-9.19,10.099-8.134c1.627,0.58,0.393,1.458,0.393,1.458
						s4.593-4.125,6.635-3.5c2.042,0.625-0.75,3.417-0.75,3.417s2.958-3.333,5.417-3.042c2.458,0.292-1.188,5.127-1.188,5.127
						s2.813-2.585,4.271-1.585c1.458,1-2.711,5.292-2.711,5.292s1.378,5.147-0.722,7.316L144.226,215.831z"/>
					<g>
						<path style="fill:#FCB38F;" d="M155.994,239.502l-0.445,4.239l-0.152,1.432c-4.72,1.186-8.36-2.027-8.36-2.027l-0.426-6.548
							c0.085-0.059,0.176-0.109,0.274-0.148C149.432,235.337,155.994,239.502,155.994,239.502z"/>
						<path style="fill:#FD8471;" d="M155.994,239.502l-0.445,4.239c-4.832-1.697-7.482-5.249-8.663-7.29
							C149.432,235.337,155.994,239.502,155.994,239.502z"/>
					</g>
					<g>
						<path style="fill:#FD8471;" d="M163.53,225.628c0,0,2.1-2.504,3.439-0.267c1.339,2.238-1.066,8.503-4.546,6.753
							L163.53,225.628z"/>
						<g>
							<path style="fill:#D6615D;" d="M163.308,230.186c0.132,0.007,0.257-0.074,0.302-0.204c0.659-1.939,2.742-2.626,2.763-2.633
								c0.158-0.051,0.246-0.221,0.195-0.379c-0.05-0.159-0.22-0.246-0.378-0.196c-0.097,0.031-2.392,0.781-3.152,3.014
								c-0.053,0.158,0.031,0.329,0.189,0.383C163.254,230.18,163.281,230.185,163.308,230.186z"/>
						</g>
						<g>
							<path style="fill:#D6615D;" d="M165.42,229.306c0.056,0.003,0.113-0.009,0.165-0.039c0.145-0.083,0.195-0.267,0.113-0.412
								c-0.014-0.024-0.345-0.594-1.081-0.973c-0.147-0.076-0.33-0.018-0.406,0.131c-0.076,0.148-0.018,0.33,0.13,0.406
								c0.57,0.293,0.831,0.731,0.833,0.735C165.227,229.247,165.321,229.301,165.42,229.306z"/>
						</g>
					</g>
					<path style="fill:#FCB38F;" d="M164.959,228.878c-0.044,0.629-0.108,1.217-0.194,1.75c-0.783,4.803-4.98,14.561-13.437,9.614
						c-2.029-1.188-3.538-2.362-4.716-3.644c-0.889-0.966-1.593-1.992-2.195-3.13c-0.233-0.439-0.339-0.933-0.491-1.405
						c-0.027-0.083-0.053-0.168-0.078-0.251c-0.015-0.048-0.029-0.093-0.044-0.14c-0.423-1.377-0.745-2.768-0.996-4.093
						c-0.312-1.654-0.512-3.196-0.635-4.465c-0.228-2.333,0.795-4.61,2.687-5.994c5.123-3.751,11.047-3.271,15.03-2.251
						c2.765,0.707,4.763,3.106,4.956,5.95c0.094,1.349,0.171,2.887,0.197,4.414C165.061,226.492,165.042,227.749,164.959,228.878z"
						/>
					<path style="fill:#FD8471;" d="M147.286,231.667c0,0-0.874,1.701-2.869,1.802c-0.177-0.463-0.339-0.933-0.491-1.405
						C144.891,232.235,146.367,232.342,147.286,231.667z"/>
					<path style="fill:#252B3D;" d="M146.612,236.599c-0.889-0.966-1.593-1.992-2.195-3.13c-0.233-0.439-0.339-0.933-0.491-1.405
						c-0.027-0.083-0.053-0.168-0.078-0.251c0.204,0.009,0.538,0.074,1.086,0.249C144.935,232.062,147.203,234.646,146.612,236.599z
						"/>
					<path style="fill:#FFFFFF;" d="M159.375,235.042c-0.365,1.077-1.363,3.016-3.824,2.692c-2.467-0.324-2.915-2.274-2.984-3.587
						L159.375,235.042z"/>
					<path style="fill:#252B3D;" d="M153.298,227.343c-0.037,0.677-0.415,1.207-0.846,1.183c-0.431-0.023-0.749-0.591-0.713-1.268
						c0.037-0.677,0.415-1.207,0.846-1.183C153.016,226.098,153.335,226.666,153.298,227.343z"/>
					<path style="fill:#252B3D;" d="M161.791,227.613c-0.037,0.677-0.415,1.207-0.846,1.183c-0.43-0.023-0.749-0.591-0.713-1.268
						c0.037-0.677,0.415-1.207,0.846-1.183C161.509,226.369,161.828,226.936,161.791,227.613z"/>
					<path style="fill:#252B3D;" d="M148.848,223.933c0,0,2.799-1.58,5.216-0.911l-0.052,1.3c0,0-3.386,0.18-4.978,1.097
						C148.815,224.951,148.725,224.461,148.848,223.933z"/>
					<path style="fill:#252B3D;" d="M164.582,224.542c0,0-2.636-1.84-5.105-1.405l-0.072,1.299c0,0,3.353,0.503,4.85,1.567
						C164.517,225.559,164.654,225.079,164.582,224.542z"/>
					<g>
						<path style="fill:#FD8471;" d="M157.243,232.731c-0.508-0.02-1.005-0.238-1.082-0.274c-0.152-0.069-0.218-0.248-0.149-0.399
							c0.069-0.152,0.248-0.219,0.4-0.15c0.268,0.121,0.914,0.321,1.204,0.163c0.056-0.031,0.133-0.092,0.159-0.275
							c0.151-1.048,0.005-4.588,0.003-4.624c-0.007-0.166,0.122-0.307,0.289-0.314c0.167-0.007,0.307,0.122,0.314,0.289
							c0.006,0.148,0.15,3.632-0.009,4.736c-0.06,0.415-0.288,0.62-0.468,0.718C157.707,232.709,157.474,232.74,157.243,232.731z"/>
					</g>
					<g>
						<path style="fill:#FCB38F;" d="M144.481,225.589c0,0-2.288-2.334-3.449,0c-1.161,2.335,1.188,8.198,5.24,6.508
							L144.481,225.589z"/>
						<g>
							<path style="fill:#FD8471;" d="M145.055,230.116c-0.131,0.017-0.262-0.053-0.317-0.18c-0.807-1.882-2.937-2.406-2.959-2.411
								c-0.162-0.038-0.262-0.201-0.224-0.363c0.038-0.162,0.2-0.263,0.362-0.225c0.099,0.023,2.446,0.594,3.375,2.761
								c0.066,0.153-0.005,0.33-0.158,0.396C145.108,230.105,145.082,230.112,145.055,230.116z"/>
						</g>
						<g>
							<path style="fill:#FD8471;" d="M142.881,229.402c-0.055,0.007-0.113-0.001-0.168-0.026c-0.151-0.071-0.215-0.251-0.144-0.402
								c0.012-0.025,0.298-0.619,1.003-1.053c0.141-0.088,0.328-0.043,0.415,0.099c0.087,0.142,0.043,0.327-0.098,0.415
								c-0.545,0.336-0.771,0.793-0.773,0.797C143.069,229.328,142.979,229.389,142.881,229.402z"/>
						</g>
					</g>
					<path style="fill:#252B3D;" d="M142.327,224.499c0,0,1.832-0.788,2.612,0.97c0.78,1.758,1.158,2.759,1.158,2.759l1.374,0.03
						c0,0-1.085-2.535-0.77-4.059c0.314-1.524,1.483-1.892,1.181-3.511c-0.302-1.619,0.488-3.672,2.167-3.951
						c1.68-0.279,8.964-0.782,11.53,0.379c2.566,1.161,2.08,3.851,2.735,4.833c0.655,0.982,0.729,3.285,0.729,3.285l0,0
						c0.402-0.562,0.621-1.232,0.634-1.923c0.016-0.834-0.013-2.113-0.207-3.765c-0.365-3.102-4.849-6.797-11.691-6.799
						c-6.842-0.002-10.925,3.229-11.803,6.571C141.098,222.661,142.327,224.499,142.327,224.499z"/>
					<path style="fill:#252B3D;" d="M144.483,219.899c0,0-4.255-0.684-3.698-2.289c0.557-1.605,3.094,0.476,3.094,0.476
						s-2.593-2.098-1.574-2.929c1.02-0.831,2.955,2.244,2.955,2.244L144.483,219.899z"/>
				</g>
			</g>
			<g>
				<g>
					<polygon style="fill:#3A4059;" points="203.32,278.45 199.498,276.814 200.548,278.772 					"/>
					<path style="fill:#3A4059;" d="M176.899,281.134l-11.986,30.107c-0.776,1.931,3.245,5.16,5.311,4.829l4.791-2.353l12.347-1.99
						c0.934-0.156,1.717-0.783,2.066-1.653l11.905-29.629c0.766-1.906-0.81-3.941-2.856-3.661l-19.446,2.683
						C178.066,279.6,177.259,280.238,176.899,281.134z"/>
					<path style="fill:#252B3D;" d="M204.207,281.604l-11.904,29.627c-0.351,0.874-1.134,1.499-2.063,1.65l-19.533,3.155
						c-2.059,0.333-3.694-1.706-2.922-3.644l11.988-30.1c0.358-0.898,1.17-1.534,2.128-1.666l19.448-2.682
						C203.391,277.662,204.975,279.691,204.207,281.604z"/>
				</g>
				<path style="fill:#3A4059;" d="M184.853,297.401c-0.873,2.174-0.489,4.375,0.859,4.916c1.348,0.541,3.148-0.782,4.021-2.955
					c0.873-2.174,0.489-4.375-0.859-4.916C187.527,293.905,185.727,295.228,184.853,297.401z"/>
			</g>
			<g>
				<g>
					<path style="fill:#FCB38F;" d="M197.715,299.02c0,0-5.524-1.577-5.555,0.032c-0.011,0.555,4.026,2.275,4.026,2.275
						l-0.351,0.622c0,0-4.509-1.523-5.569-0.565c-1.06,0.958,4.463,2.522,4.463,2.522l-0.445,0.787c0,0-3.56-1.262-4.565-0.504
						c-1.005,0.758,4.116,2.615,4.116,2.615l-0.346,0.612c0,0-2.19-0.474-3.302,0.167c-1.112,0.641,2.537,1.707,4.175,1.768
						c1.638,0.061,1.801-1.114,1.83-1.675c0,0,1.426-1.444,1-2.781c0,0,1.446-1.028,0.92-2.393
						C198.111,302.503,200.339,300.004,197.715,299.02z"/>
				</g>
				<path style="fill:#FCB38F;" d="M198.591,300.119c-0.314,0.595-1.258,0.66-2.094,0.494l2.21-5.321
					c0.319,0.329,0.443,1.537,0.225,2.419C198.642,298.867,198.591,300.119,198.591,300.119z"/>
			</g>
			<g>
				<g>
					<g>
						<path style="fill:#7732EF;" d="M135.135,287.705c2.754-0.966,5.712-2.763,8.391-3.929c-0.135-0.33-0.275-0.687-0.417-1.065
							c-0.051-0.131-0.1-0.268-0.153-0.406c-0.062-0.174-0.126-0.349-0.189-0.53c-3.826-10.695-8.046-31.887-8.046-31.887
							s-7.235,2.607-6.674,13.356C128.38,269.624,131.469,280.852,135.135,287.705z"/>
					</g>
				</g>
				<path style="fill:#7732EF;" d="M135.135,287.705c2.146,6.946,23.955,22.29,31.206,25.343l0.297-8.103
					c-16.303-14.598-22.093-20.847-23.383-22.297c-0.208-0.234-0.299-0.342-0.299-0.342l-3.718,2.568L135.135,287.705z"/>
				<g>
					<path style="fill:#5D16BC;" d="M139.17,284.811c0.022,0.023,0.046,0.043,0.069,0.061c0.034,0.023,0.07,0.043,0.108,0.058
						c0.174,0.067,0.381,0.033,0.527-0.107c1.028-0.992,2.225-1.669,3.235-2.112c0.05-0.022,0.098-0.044,0.146-0.064
						c-0.208-0.234-0.299-0.342-0.299-0.342c-0.062-0.174-0.126-0.349-0.189-0.53c-1.108,0.478-2.43,1.221-3.583,2.333
						C138.987,284.3,138.977,284.614,139.17,284.811z"/>
				</g>
				<path style="fill:#FCB38F;" d="M166.639,304.944c0,0,4.376-0.363,4.998,1.188l0.544,2.743l1.271,6.404
					c0,0-2.656,1.785-7.112-2.231C165.16,310.283,165.385,307.588,166.639,304.944z"/>
				<g>
					<path style="fill:#FCB38F;" d="M171.248,304.298c0,0,5.897-0.387,5.579,1.238c-0.11,0.561-4.542,1.414-4.542,1.414l0.218,0.701
						c0,0,4.864-0.553,5.723,0.641c0.858,1.193-5.035,1.568-5.035,1.568l0.276,0.888c0,0,3.854-0.497,4.7,0.484
						c0.846,0.981-4.707,1.736-4.707,1.736l0.215,0.69c0,0,2.305-0.001,3.284,0.885c0.979,0.885-2.921,1.166-4.582,0.871
						c-1.66-0.294-1.569-1.511-1.476-2.081c0,0-1.121-1.762-0.402-3.013c0,0-1.231-1.348-0.406-2.606
						C170.093,307.714,168.395,304.717,171.248,304.298z"/>
				</g>
				<path style="fill:#FCB38F;" d="M166.639,304.944c0,0,0.437-1.212,0.61-2.425c0.173-1.213,0.858-2.896,1.388-2.155
					c0.66,0.92,0.539,2.064,0.639,3.059c0.229,2.278,0.94,1.741,0.915,2.495C170.167,306.671,166.778,306.328,166.639,304.944z"/>
			</g>
		</g>
	</g>
	<g>
		<path style="opacity:0.1;fill:#252B3D;" d="M350.13,77.459v102.12l-17.255,10.35L228.86,252.29
			c-1.478,0.886-3.201,1.273-4.915,1.105l-5.192-0.509v-0.04c-0.192-0.03-0.377-0.075-0.552-0.14
			c-1.28-0.462-2.105-1.807-2.115-3.85l-0.495-82.885c-0.023-3.727,2.637-8.375,5.942-10.385l111.343-67.645L350.13,77.459z"/>
		<g>
			<g>
				<g>
					<path style="fill:#7732EF;" d="M385.039,75.584l-2.465,101.659l-133.721,80.172l-8.183-0.803v-0.041
						c-0.201-0.029-0.394-0.08-0.578-0.145c-1.34-0.484-2.199-1.889-2.211-4.025l-0.518-86.601
						c-0.022-3.894,2.758-8.752,6.209-10.849L373.95,75.739c1.205-0.733,2.332-1.033,3.29-0.946l0.08,0.007L385.039,75.584z"/>
					<path style="fill:#8167F8;" d="M388.268,79.792l0.518,86.6c0.023,3.894-2.759,8.753-6.211,10.85l-130.379,79.213
						c-1.554,0.944-2.984,1.167-4.083,0.773c-1.341-0.483-2.197-1.888-2.21-4.026l-0.518-86.6
						c-0.023-3.894,2.757-8.752,6.209-10.849L381.972,76.54C385.424,74.443,388.245,75.898,388.268,79.792z"/>
					<polygon style="fill:#3A4059;" points="388.331,90.548 388.446,109.742 245.563,196.551 245.448,177.357 					"/>
					<path style="fill:#9985FF;" d="M377.077,167.524l-30.909,18.779c-0.745,0.453-1.354,0.138-1.359-0.702l-0.061-10.236
						c-0.005-0.841,0.595-1.889,1.341-2.342l30.909-18.779c0.745-0.453,1.354-0.138,1.359,0.702l0.061,10.236
						C378.423,166.023,377.823,167.071,377.077,167.524z"/>
					<g>
						<path style="fill:#9985FF;" d="M264.159,208.104l-9.419,5.723c-0.414,0.251-0.751,0.077-0.754-0.39l-0.033-5.554
							c-0.003-0.467,0.33-1.049,0.744-1.3l9.419-5.723c0.414-0.251,0.751-0.077,0.754,0.39l0.033,5.554
							C264.906,207.27,264.573,207.853,264.159,208.104z"/>
						<path style="fill:#9985FF;" d="M283.39,196.421l-9.419,5.723c-0.414,0.251-0.752,0.077-0.754-0.39l-0.033-5.554
							c-0.003-0.467,0.33-1.049,0.744-1.301l9.419-5.722c0.414-0.251,0.751-0.077,0.754,0.39l0.033,5.554
							C284.136,195.587,283.803,196.169,283.39,196.421z"/>
						<path style="fill:#9985FF;" d="M302.62,184.737l-9.419,5.723c-0.414,0.251-0.751,0.077-0.754-0.39l-0.033-5.554
							c-0.003-0.467,0.33-1.049,0.744-1.3l9.419-5.722c0.414-0.251,0.751-0.077,0.754,0.39l0.033,5.554
							C303.367,183.903,303.034,184.486,302.62,184.737z"/>
						<path style="fill:#9985FF;" d="M321.85,173.053l-9.419,5.722c-0.414,0.252-0.752,0.077-0.754-0.39l-0.033-5.554
							c-0.003-0.467,0.33-1.049,0.744-1.301l9.419-5.723c0.414-0.251,0.751-0.077,0.754,0.39l0.033,5.554
							C322.597,172.22,322.264,172.802,321.85,173.053z"/>
						<path style="fill:#9985FF;" d="M341.08,161.37l-9.419,5.723c-0.414,0.251-0.751,0.077-0.754-0.39l-0.033-5.554
							c-0.003-0.467,0.33-1.049,0.744-1.3l9.419-5.723c0.414-0.251,0.751-0.077,0.754,0.39l0.033,5.554
							C341.827,160.536,341.494,161.118,341.08,161.37z"/>
						<path style="fill:#9985FF;" d="M360.311,149.686l-9.419,5.723c-0.414,0.251-0.752,0.077-0.754-0.39l-0.033-5.554
							c-0.003-0.467,0.33-1.049,0.744-1.3l9.419-5.722c0.414-0.251,0.751-0.077,0.754,0.39l0.033,5.554
							C361.058,148.853,360.725,149.435,360.311,149.686z"/>
						<path style="fill:#9985FF;" d="M379.541,138.003l-9.419,5.722c-0.414,0.251-0.752,0.077-0.754-0.39l-0.033-5.554
							c-0.003-0.467,0.33-1.049,0.744-1.3l9.419-5.723c0.414-0.251,0.751-0.077,0.754,0.39l0.033,5.554
							C380.288,137.169,379.955,137.751,379.541,138.003z"/>
					</g>
					<polygon style="fill:#9985FF;" points="388.271,80.377 388.293,84.057 245.41,170.867 245.388,167.187 					"/>
					<path style="fill:#9985FF;" d="M271.195,233.752l-14.821,9.005c-1.217,0.74-2.211,0.226-2.219-1.147l-0.1-16.718
						c-0.008-1.373,0.972-3.086,2.189-3.826l14.822-9.005c1.217-0.74,2.211-0.226,2.219,1.147l0.1,16.719
						C273.393,231.299,272.413,233.012,271.195,233.752z"/>
					<path style="fill:#9985FF;" d="M339.452,186.718l-60.742,36.904c-0.418,0.254-0.758,0.077-0.761-0.394l-0.026-4.27
						c-0.003-0.471,0.333-1.059,0.751-1.312l60.742-36.904c0.418-0.254,0.758-0.078,0.761,0.394l0.025,4.27
						C340.206,185.877,339.87,186.464,339.452,186.718z"/>
					<path style="opacity:0.2;fill:#FFFFFF;" d="M335.286,104.905l-87.175,152.323c-1.341-0.483-2.197-1.888-2.21-4.026
						l-0.182-30.381l55.712-97.348L335.286,104.905z"/>
					<polygon style="opacity:0.2;fill:#FFFFFF;" points="381.706,76.702 293.032,231.644 276.468,241.708 365.141,86.766 					"/>
				</g>
			</g>
		</g>
	</g>
	<g>
		
			<ellipse transform="matrix(0.9092 -0.4163 0.4163 0.9092 -133.5199 164.5695)" style="fill:#E5E5E5;" cx="310.603" cy="388.45" rx="49.489" ry="17.687"/>
		<g>
			<polygon style="fill:#7732EF;" points="285.227,335.466 330.911,308.813 338.483,313.233 292.841,339.585 			"/>
			<g>
				<g>
					<polygon style="fill:#9895FF;" points="292.841,339.585 338.483,313.233 346.2,379.183 292.816,409.824 					"/>
					<g>
						<path style="fill:#7732EF;" d="M326.89,326.539c-0.009,1.058,0.751,1.465,1.697,0.908c0.946-0.557,1.72-1.866,1.728-2.924
							c0.009-1.058-0.751-1.465-1.697-0.908C327.673,324.172,326.899,325.481,326.89,326.539z"/>
						<path style="fill:#7732EF;" d="M303.898,340.068c-0.009,1.058,0.751,1.465,1.697,0.908c0.946-0.557,1.72-1.866,1.728-2.924
							c0.009-1.058-0.751-1.465-1.697-0.908C304.68,337.701,303.906,339.01,303.898,340.068z"/>
					</g>
				</g>
			</g>
			<polygon style="fill:#8167F8;" points="292.816,409.824 277.613,401.209 285.227,335.466 292.841,339.585 			"/>
			<g>
				<g>
					<path style="fill:#7732EF;" d="M299.287,333.736c-0.537,0-1.002-0.402-1.068-0.949c-0.033-0.273-0.796-6.783-0.039-14.297
						c0.448-4.449,1.342-8.317,2.657-11.497c1.685-4.076,4.073-7.041,7.098-8.814c3.176-1.861,5.992-2.113,8.37-0.75
						c6.973,3.996,7.053,20.98,7.053,21.702c0,0.595-0.482,1.077-1.077,1.077c-0.595,0-1.077-0.482-1.077-1.077
						c-0.002-4.566-1.078-17.031-5.971-19.833c-1.683-0.964-3.714-0.722-6.209,0.74c-11.609,6.803-8.697,32.237-8.667,32.493
						c0.071,0.591-0.35,1.127-0.941,1.198C299.374,333.733,299.33,333.736,299.287,333.736z"/>
				</g>
			</g>
			<g>
				<g>
					<path style="fill:#8167F8;" d="M319.732,346.056c-8.879,5.314-15.997,16.611-15.867,25.181
						c0.13,8.57,7.459,11.219,16.338,5.905c8.879-5.315,15.997-16.611,15.867-25.181
						C335.941,343.39,328.612,340.741,319.732,346.056z M320.702,366.95l-0.082-5.446l7.279-4.357
						c-0.016,1.952-0.277,3.955-0.777,5.961L320.702,366.95z M325.357,370.423c1.16-2.156,2.076-4.386,2.724-6.628l4.905-2.936
						c-2.019,4.799-5.459,9.384-9.536,12.723C324.131,372.572,324.771,371.513,325.357,370.423z M326.701,364.621
						c-0.584,1.892-1.371,3.768-2.341,5.58c-1.515,2.827-3.043,4.718-3.527,5.288l-0.111-7.289L326.701,364.621z M320.5,353.559
						l-0.1-6.626c0.191-0.107,0.384-0.21,0.577-0.31c0.815,0.177,3.375,0.925,5.149,3.569L320.5,353.559z M327.54,349.345
						c-0.597-0.993-1.346-1.841-2.227-2.52c-0.638-0.492-1.335-0.896-2.074-1.203c3.717-1.351,7.003-1.05,9.113,0.844
						L327.54,349.345z M320.601,360.254l-0.082-5.446l6.153-3.683c0.692,1.356,1.096,2.962,1.2,4.777L320.601,360.254z
						 M329.168,355.126c-0.099-1.808-0.476-3.429-1.122-4.824l5.061-3.029c0.915,1.174,1.46,2.695,1.62,4.525L329.168,355.126z
						 M334.775,353.032c-0.01,1.916-0.401,3.997-1.16,6.19l-5.144,3.079c0.467-1.997,0.71-3.99,0.724-5.928L334.775,353.032z
						 M311.789,372.285l-5.295,3.169c-0.812-1.252-1.257-2.833-1.325-4.702l5.732-3.431
						C310.972,369.209,311.271,370.878,311.789,372.285z M313.726,357.613c0.482-1.371,1.072-2.767,1.754-4.154
						c1.325-2.693,2.662-4.696,3.214-5.484c0.136-0.091,0.272-0.18,0.41-0.267l0.1,6.626L313.726,357.613z M319.223,355.584
						l0.082,5.446l-7.121,4.262c0.048-1.9,0.395-3.955,1.034-6.114L319.223,355.584z M307.354,361.427
						c2.054-4.447,5.342-8.698,9.115-11.797c-0.733,1.201-1.419,2.446-2.043,3.711c-0.845,1.713-1.555,3.434-2.112,5.117
						L307.354,361.427z M319.325,362.28l0.082,5.446l-6.271,3.753c-0.551-1.37-0.867-3.028-0.941-4.932L319.325,362.28z
						 M305.18,369.485c0.102-1.985,0.591-4.125,1.456-6.367l5.21-3.119c-0.593,2.136-0.914,4.176-0.957,6.068L305.18,369.485z
						 M312.217,373.291c0.703,1.435,1.669,2.537,2.873,3.278c0.623,0.383,1.299,0.668,2.016,0.85
						c-4.138,1.622-7.807,1.22-9.945-1.103L312.217,373.291z M319.426,368.976l0.109,7.2c-0.989-0.004-4.08-0.304-5.936-3.713
						L319.426,368.976z"/>
				</g>
			</g>
			<g>
				<path style="fill:#8167F8;" d="M305.609,340.138c-0.538,0-1.002-0.402-1.068-0.949c-0.033-0.273-0.796-6.783-0.039-14.297
					c0.448-4.449,1.342-8.317,2.657-11.497c1.685-4.076,4.073-7.041,7.098-8.814c3.175-1.861,5.991-2.113,8.37-0.75
					c6.973,3.996,7.053,20.981,7.053,21.702c0,0.595-0.482,1.077-1.077,1.077c-0.595,0-1.077-0.482-1.077-1.077
					c-0.002-4.566-1.078-17.031-5.971-19.833c-1.683-0.964-3.714-0.722-6.209,0.741c-11.609,6.803-8.697,32.237-8.667,32.493
					c0.071,0.591-0.35,1.127-0.941,1.198C305.695,340.135,305.652,340.138,305.609,340.138z"/>
			</g>
		</g>
	</g>
	<g>
		<ellipse style="fill:#E5E5E5;" cx="393.602" cy="427.002" rx="21.326" ry="6.057"/>
		<g>
			<path style="fill:#51557C;" d="M414.73,393.909l-8.94,29.905c-0.369,1.49-1.383,2.731-2.756,3.417
				c-6.771,3.383-13.54,3.384-20.306,0c-1.372-0.686-2.385-1.927-2.754-3.416l-8.958-29.975l21.865-3.021L414.73,393.909z"/>
			<ellipse style="fill:#3A4059;" cx="392.883" cy="392.346" rx="22.045" ry="11.662"/>
			<ellipse style="fill:#252B3D;" cx="392.883" cy="392.346" rx="15.245" ry="6.808"/>
			<g>
				<g>
					<g>
						<path style="fill:#8167F8;" d="M401.411,353.134l-1.958-1.768c0,0-0.002-1.959,0.182-4.994
							c0.061-0.971,0.141-2.053,0.246-3.217c1.047-11.707,4.684-31.674,17.286-30.499
							C434.929,314.318,401.411,353.134,401.411,353.134z"/>
					</g>
					<g>
						<path style="fill:#7732EF;" d="M412.473,322.708l-12.838,23.663c0.061-0.971,0.141-2.053,0.246-3.217l11.435-21.075
							c0.173-0.319,0.572-0.439,0.891-0.266C412.53,321.99,412.646,322.389,412.473,322.708z"/>
					</g>
				</g>
				<g>
					<g>
						<path style="fill:#8167F8;" d="M396.412,349.565l-0.673,0.188l-1.867,0.528c0,0-34.194-21.457-23.327-35.609
							c9.518-12.394,22.206,23.693,25.21,32.842C396.181,348.809,396.412,349.565,396.412,349.565z"/>
					</g>
					<g>
						<path style="fill:#7732EF;" d="M396.412,349.565l-0.673,0.188l-20.319-28.35c-0.211-0.297-0.142-0.709,0.152-0.923
							c0.297-0.211,0.709-0.142,0.924,0.152l19.26,26.882C396.181,348.809,396.412,349.565,396.412,349.565z"/>
					</g>
				</g>
				<g>
					<g>
						<path style="fill:#8167F8;" d="M389.176,385.691h-2.638c0,0-27.074-29.949-12.767-40.612
							C388.074,334.417,389.176,385.691,389.176,385.691z"/>
					</g>
					<g>
						<path style="fill:#7732EF;" d="M388.638,385.691h-1.392l-10.682-31.687c-0.119-0.343,0.069-0.719,0.412-0.834
							c0.346-0.119,0.719,0.069,0.838,0.412L388.638,385.691z"/>
					</g>
				</g>
				<g>
					<path style="fill:#9895FF;" d="M391.498,393.319H386c0,0-29.155-10.917-21.988-24.623
						C372.148,353.139,391.498,393.319,391.498,393.319z"/>
					<g>
						<path style="fill:#8167F8;" d="M389.624,393.319h-1.837l-17.964-18.469c-0.254-0.26-0.247-0.679,0.013-0.933
							c0.261-0.254,0.679-0.247,0.933,0.013L389.624,393.319z"/>
					</g>
				</g>
				<g>
					<g>
						<path style="fill:#8167F8;" d="M400.841,393.313h-3.862c0,0,0.007-0.62,0.049-1.728c0.33-8.839,1.102-52.467,20.27-53.003
							C436.262,338.052,412.054,386.057,400.841,393.313z"/>
					</g>
					<g>
						<path style="fill:#7732EF;" d="M416.302,351.794l-18.604,41.519h-0.719c0,0,0.007-0.62,0.049-1.728l18.067-40.332
							c0.152-0.333,0.541-0.481,0.874-0.333C416.302,351.072,416.451,351.461,416.302,351.794z"/>
					</g>
				</g>
				<g>
					<g>
						<path style="fill:#9895FF;" d="M396.979,393.313h-7.242c0,0-17.367-82.451,6.157-88.169
							C419.419,299.428,396.979,393.313,396.979,393.313z"/>
					</g>
					<g>
						<path style="fill:#8167F8;" d="M395.759,324.222l-2.098,69.09h-1.319l2.101-69.133c0.01-0.363,0.32-0.656,0.679-0.637
							C395.485,323.553,395.772,323.856,395.759,324.222z"/>
					</g>
				</g>
			</g>
		</g>
	</g>
	<g>
		<g>
			<path style="fill:#E5E5E5;" d="M470.43,139.006v89.579c0,0.398-0.215,0.77-0.56,0.97l-109.532,63.237
				c-0.176,0.102-0.364,0.154-0.555,0.154c-0.541,0-1.124-0.43-1.124-1.124v-89.423c0-0.399,0.215-0.769,0.56-0.969l109.53-63.393
				c0.178-0.104,0.364-0.156,0.557-0.156C469.847,137.881,470.43,138.311,470.43,139.006z"/>
			<g>
				<path style="opacity:0.1;fill:#252B3D;" d="M470.43,139.006v4.251l-111.771,64.659v-5.518c0-0.399,0.215-0.769,0.56-0.969
					l109.53-63.393c0.178-0.104,0.364-0.156,0.557-0.156C469.847,137.881,470.43,138.311,470.43,139.006z"/>
				<g>
					<path style="fill:#9985FF;" d="M460.669,146.215c-0.04,0.746-0.514,1.35-1.059,1.35s-0.956-0.605-0.916-1.35
						c0.04-0.746,0.514-1.35,1.059-1.35S460.709,145.469,460.669,146.215z"/>
					<path style="fill:#3A4059;" d="M463.817,144.623c-0.04,0.746-0.514,1.35-1.059,1.35c-0.546,0-0.956-0.605-0.916-1.35
						c0.039-0.746,0.514-1.35,1.059-1.35S463.857,143.877,463.817,144.623z"/>
					<path style="fill:#7732EF;" d="M466.613,143.072c-0.039,0.746-0.514,1.35-1.059,1.35c-0.546,0-0.956-0.604-0.916-1.35
						c0.039-0.746,0.514-1.35,1.059-1.35C466.242,141.722,466.652,142.326,466.613,143.072z"/>
				</g>
			</g>
		</g>
		<g>
			<g>
				<g>
					<path style="fill:#51557C;" d="M426.901,240.11c-0.013,2.356,1.334,3.462,3.007,2.472c1.673-0.99,3.04-3.703,3.052-6.058
						c0.013-2.356-1.334-3.462-3.007-2.472C428.28,235.042,426.914,237.755,426.901,240.11z"/>
				</g>
				<g>
					<path style="fill:#3A4059;" d="M429.917,240.985c1.045-0.618,1.901-2.318,1.909-3.789c0.008-1.471-0.836-2.164-1.88-1.546
						c-1.045,0.618-1.901,2.318-1.909,3.789C428.028,240.909,428.872,241.603,429.917,240.985z"/>
				</g>
			</g>
			<g>
				<g>
					<path style="fill:#51557C;" d="M410.363,249.898c-0.013,2.356,1.334,3.463,3.007,2.472c1.673-0.99,3.04-3.703,3.052-6.058
						c0.013-2.356-1.334-3.463-3.007-2.472C411.742,244.83,410.376,247.543,410.363,249.898z"/>
				</g>
				<g>
					<path style="fill:#3A4059;" d="M413.378,250.773c1.045-0.618,1.901-2.318,1.909-3.789c0.008-1.471-0.836-2.164-1.88-1.546
						c-1.045,0.618-1.901,2.318-1.909,3.789C411.49,250.697,412.334,251.391,413.378,250.773z"/>
				</g>
			</g>
			<g>
				<path style="fill:#51557C;" d="M390.389,204.148l5.79-3.415l0.669,3.143c0.003,0.03,0.009,0.06,0.015,0.089l1.359,6.237v0.001
					l0.21,0.962l1.714,7.86l0.417,1.915l1.658,7.604l0.417,1.915l1.494,6.854c0.008,0.043,0.02,0.081,0.033,0.117l0.001,0.001
					c0,0.001,0,0.001,0,0.001l1.286,5.901c0.671,3.074,2.932,4.16,5.499,2.641l23.563-13.946c0.426-0.252,0.772-0.94,0.776-1.539
					c0.003-0.599-0.338-0.88-0.764-0.628l-23.563,13.946c-1.878,1.112-3.533,0.317-4.024-1.934l-1.048-4.808l33.052-19.562
					c0.384-0.228,0.712-0.82,0.768-1.387l0.795-8.068l0.226-2.296l0.898-9.117l0.226-2.296l0.954-9.682
					c0.068-0.201,0.107-0.41,0.108-0.611c0-0.094-0.007-0.181-0.023-0.257l0.753-7.653c0.033-0.33-0.032-0.605-0.177-0.755
					c-0.145-0.149-0.357-0.16-0.579-0.028l-44.672,26.439l-0.69-3.239c-0.09-0.422-0.396-0.57-0.746-0.362l-7.351,4.338
					c-0.371,0.219-0.546,0.662-0.424,1.076l0,0C389.183,204.191,389.862,204.459,390.389,204.148z M404.237,229.514l34.713-20.545
					l-0.666,6.762l-32.81,19.418l-1.027-4.709c-0.01-0.043-0.022-0.082-0.036-0.12v-0.004L404.237,229.514z M402.163,219.994
					l37.913-22.438l-0.898,9.117l-35.358,20.926L402.163,219.994z M400.088,210.476l41.111-24.331l-0.897,9.115l-38.558,22.82
					L400.088,210.476z M398.615,203.721l43.383-25.676l-0.572,5.805l-41.755,24.713L398.615,203.721z"/>
			</g>
		</g>
	</g>
	<g>
		<g>
			<g>
				<g>
					<polygon style="fill:#8167F8;" points="199.802,258.597 196.356,266.138 196.356,260.587 					"/>
					<polygon style="fill:#5D16BC;" points="196.359,266.138 194.65,265.152 194.65,261.572 196.356,260.587 					"/>
				</g>
				<polygon style="fill:#5D16BC;" points="180.343,239.793 180.343,264.866 184.678,267.369 184.302,242.096 				"/>
				<polygon style="fill:#8167F8;" points="206.754,229.134 206.754,254.624 184.678,267.369 184.302,242.096 				"/>
				<g>
					<g>
						<path style="fill:#FFFFFF;" d="M197.733,254.064l0.012,2.016l-2.326,1.413l-0.012-1.925c-1.65,0.893-3.254,1.375-4.248,1.305
							l1.235-3.885c1.093,0.047,2.548-0.381,3.818-1.153c1.105-0.671,1.5-1.166,1.497-1.602c-0.01-1.598-6.387,3.571-6.415-1.169
							c-0.012-2.052,1.33-4.599,4.033-6.661l-0.012-1.979l2.326-1.413l0.012,1.943c1.222-0.615,2.412-0.991,3.355-0.981
							l-1.153,3.817c-1.142,0.056-2.217,0.399-3.223,1.01c-1.138,0.692-1.499,1.275-1.497,1.711c0.009,1.525,6.386-3.625,6.414,1.06
							C201.564,249.531,200.287,252.02,197.733,254.064z"/>
					</g>
				</g>
				<polygon style="fill:#7732EF;" points="180.343,239.793 202.795,226.831 206.754,229.134 184.302,242.096 				"/>
			</g>
		</g>
		<g>
			<g>
				<g>
					<polygon style="fill:#8167F8;" points="199.802,209.764 196.356,217.305 196.356,211.753 					"/>
					<polygon style="fill:#5D16BC;" points="196.359,217.305 194.65,216.319 194.65,212.738 196.356,211.753 					"/>
				</g>
				<polygon style="fill:#5D16BC;" points="180.343,190.96 180.343,216.033 184.678,218.536 184.302,193.263 				"/>
				<polygon style="fill:#8167F8;" points="206.754,180.301 206.754,205.791 184.678,218.536 184.302,193.263 				"/>
				<g>
					<path style="fill:#FFFFFF;" d="M198.695,191.135l2.701-1.59l-7.379,18.424l-2.701,1.59L198.695,191.135z M188.344,199.768
						c-0.046-2.467,1.207-4.632,2.901-5.629c1.694-0.997,2.998-0.336,3.044,2.13c0.046,2.488-1.205,4.632-2.9,5.63
						C189.695,202.896,188.39,202.256,188.344,199.768z M192.02,197.605c-0.025-1.333-0.383-1.524-0.735-1.318
						c-0.351,0.207-0.697,0.813-0.672,2.145c0.025,1.333,0.385,1.524,0.736,1.317S192.045,198.938,192.02,197.605z M198.248,202.504
						c-0.046-2.467,1.206-4.632,2.9-5.63c1.694-0.997,2.998-0.336,3.044,2.131c0.046,2.487-1.205,4.632-2.9,5.629
						C199.598,205.632,198.295,204.991,198.248,202.504z M201.923,200.341c-0.025-1.333-0.384-1.524-0.735-1.318
						s-0.695,0.811-0.67,2.145c0.025,1.333,0.384,1.524,0.735,1.318C201.604,202.279,201.948,201.674,201.923,200.341z"/>
				</g>
				<polygon style="fill:#7732EF;" points="180.343,190.96 202.795,177.997 206.754,180.301 184.302,193.263 				"/>
			</g>
		</g>
		<g>
			<g>
				<polygon style="fill:#8167F8;" points="420.775,139.727 417.835,146.161 417.835,141.424 				"/>
				<polygon style="fill:#5D16BC;" points="417.837,146.161 416.379,145.32 416.379,142.265 417.835,141.424 				"/>
			</g>
			<polygon style="fill:#5D16BC;" points="403.276,124.177 403.276,145.57 406.976,147.705 406.654,126.142 			"/>
			<polygon style="fill:#8167F8;" points="425.811,115.082 425.811,136.831 406.976,147.705 406.654,126.142 			"/>
			<g>
				<path style="fill:#FFFFFF;" d="M422.336,125.994c0.015,1-0.284,2.194-0.901,3.343l-4.211,7.841l-4.362-2.525
					c-0.639-0.37-0.967-1.176-0.982-2.176s0.284-2.194,0.9-3.341c1.15-2.142,2.938-2.993,4.305-1.426
					c1.298-3.219,3.078-4.581,4.269-3.891C421.993,124.188,422.321,124.994,422.336,125.994z"/>
			</g>
			<polygon style="fill:#7732EF;" points="403.276,124.177 422.433,113.117 425.811,115.082 406.654,126.142 			"/>
		</g>
	</g>
	<path style="fill:#7732EF;" d="M115.817,123.257h-0.067l0.002-0.003C115.775,123.257,115.795,123.257,115.817,123.257z"/>
	<g>
		<g>
			<path style="fill:#7732EF;" d="M188.405,85.754l0.17,18.007c0.013,1.365-0.71,2.627-1.893,3.307l-81.91,47.03l1.048,2.045h-5.6
				c-0.022,0-0.042,0-0.065-0.002c-1.945-0.033-3.71-1.598-3.71-3.773v-17.84c0-1.348,0.717-2.592,1.885-3.265l84.417-48.74
				c0.515-0.298,1.058-0.457,1.592-0.497c0.095-0.01,0.193-0.013,0.288-0.013h6.04l-2.62,2.165
				C188.273,84.649,188.4,85.179,188.405,85.754z"/>
		</g>
		<g>
			<path style="fill:#8167F8;" d="M101.944,134.529v17.839c0,2.898,3.134,4.713,5.648,3.27l84.59-48.57
				c1.182-0.679,1.906-1.943,1.893-3.306l-0.171-18.009c-0.027-2.887-3.156-4.673-5.656-3.23l-84.419,48.739
				C102.663,131.937,101.944,133.182,101.944,134.529z"/>
		</g>
		<g>
			<g>
				<path style="fill:#9985FF;" d="M176.499,97.056v11.487c0,1.105,1.203,1.79,2.154,1.226l9.598-5.702
					c0.432-0.257,0.697-0.723,0.697-1.226V91.193c0-1.113-1.219-1.797-2.169-1.216l-9.598,5.863
					C176.757,96.098,176.499,96.559,176.499,97.056z"/>
			</g>
			<g>
				<path style="fill:#9985FF;" d="M107.275,138.08c-0.259,0-0.511-0.135-0.65-0.375c-0.207-0.359-0.084-0.817,0.275-1.025
					l63.221-36.501c0.359-0.207,0.818-0.084,1.025,0.275c0.207,0.359,0.084,0.817-0.275,1.024l-63.221,36.501
					C107.531,138.048,107.402,138.08,107.275,138.08z"/>
			</g>
			<g>
				<path style="fill:#9985FF;" d="M107.275,142.435c-0.259,0-0.511-0.134-0.65-0.375c-0.207-0.359-0.084-0.817,0.275-1.025
					l63.221-36.501c0.359-0.207,0.818-0.084,1.025,0.274c0.207,0.359,0.084,0.817-0.275,1.025l-63.221,36.501
					C107.531,142.403,107.402,142.435,107.275,142.435z"/>
			</g>
			<g>
				<path style="fill:#9985FF;" d="M107.275,147.596c-0.259,0-0.511-0.134-0.65-0.375c-0.207-0.359-0.084-0.817,0.275-1.025
					l63.221-36.501c0.359-0.207,0.818-0.084,1.025,0.274c0.207,0.359,0.084,0.817-0.275,1.025l-63.221,36.501
					C107.531,147.564,107.402,147.596,107.275,147.596z"/>
			</g>
		</g>
	</g>
</g>
</svg>
